<?xml version="1.0" encoding="UTF-8"?>
<svg id="Warstwa_1" data-name="Warstwa 1" xmlns="http://www.w3.org/2000/svg" viewBox="0 0 1536 1024">
  <defs>
    <style>
      .cls-1 {
        fill: #e85011;
      }
    </style>
  </defs>
  <path class="cls-1" d="M570.73,630.47c-1.35-55.85.97-111.92.04-167.79-.35-1.49-4.55-1.73-5.86-1.82-12.57-.86-32.81,2.63-43.64-2.22-15.46-6.93-17.89-26.04-7.49-38.38.25-.3.54-.57.85-.8l78.63-60.91c1.11-.86,1.86-2.11,2.05-3.5,1.8-13.07,1-26.53,1.06-39.75.04-8.42-1.4-19.56-1.03-27.51.43-9.31,7.59-19.73,16.24-23.31,7.22-2.99,36.19-2.72,45.04-1.96,12.12,1.05,21.16,8.4,24.33,19.09,1.1,3.73,5.55,5.24,8.6,2.83l49.59-39.25c.12-.1.25-.19.38-.28,16.5-11.22,35.74-10.24,52.32-.93.27.15.52.32.76.52,74.28,59.23,149.48,117.33,222.92,177.6.33.27.63.57.88.9,7.16,9.36,6.04,23.47-2.53,31.54-1.77,1.67-8.71,6.37-10.69,6.37h-39.97c-2.97,0-5.4,2.39-5.44,5.36-.72,54.34,1.3,108.83.08,163.14-.65,28.93-8.53,46.78-37.62,55.8-.48.15-.99.23-1.49.24-102.34,2.7-205.66,2.31-308.03.2-.51-.01-1.02-.09-1.5-.24-28.92-8.79-37.78-25.82-38.48-54.94ZM823.48,661.3c0,3,2.43,5.43,5.43,5.43h82.55c8.07,0,18.72-8.98,22.41-15.98,8-15.14,4.74-59.33,4.83-78.45.15-32.97-.33-66.85,0-100.25.31-9.87-4.52-28.33,9.1-30.25,14.4-2.03,32.33,1.32,47.33-.16,1.21-.12,2.39-.6,3.23-1.48,2.61-2.77.75-6.86-2.7-9.08l-211.75-167.91c-9.72-7.61-21.1-8.22-31.63-1.95-18.61,11.08-42.07,32.72-60.09,46.55-53.47,41.03-107.2,83.1-161.14,124.08-.22.17-.44.35-.63.56-3.49,3.66-3.22,8.4,2.49,9.2,15.05,2.1,33.79-1.48,49.33.26.34.04.68.09,1,.2,2.04.73,4.9,3.2,6.38,5.36.59.86.87,1.9.88,2.95l.56,190.88c0,.2,0,.41.03.61,1.1,10.87,15.42,24.85,26.01,24.85h83.62c3,0,5.43-2.43,5.43-5.43v-135.88c0-8.1,13.86-22.63,21.34-25.58,10.66-4.21,48.55-3.61,61.36-2.73,10.78.74,23,6.49,29.1,15.69,1.01,1.53,5.51,11.58,5.51,12.62v135.88ZM624.23,334.86l35.58-26.96c1.29-.98,2.09-2.47,2.14-4.09.24-7.37,2.58-17.95-5.1-21.27-2.93-1.27-30.32-1.43-34.17-.57-2.79.62-7.16,5.14-7.16,7.77v40.79c0,4.49,5.13,7.04,8.71,4.33ZM798.87,666.73c2.78,0,5.17-2.09,5.4-4.85.42-5.08-.91-10.21-.84-14.87.53-34.43,3.46-74.82.89-108.82-.72-9.58-3.48-19.1-14.53-20.66-9.32-1.32-39.51-1.28-48.99-.12-5.24.64-14.37,6.82-14.37,12.29v131.61c0,3,2.43,5.43,5.43,5.43h67.01Z"/>
  <path class="cls-1" d="M733.61,360.9c14.1-2.86,24.14,3.4,31.75,14.67,17.2-29.76,59.51-12.82,43.39,22.08-5.09,11.03-28.6,35.21-39.93,38.98-7.55,2.51-11.84-1.98-17.76-6.2-15.84-11.28-39.61-34.85-31.86-56.2,2.01-5.54,8.58-12.13,14.41-13.32Z"/>
</svg>