<?xml version="1.0" encoding="UTF-8"?>
<svg id="Warstwa_1" data-name="Warstwa 1" xmlns="http://www.w3.org/2000/svg" viewBox="0 0 1536 1024">
  <defs>
    <style>
      .cls-1 {
        fill: #e85011;
      }
    </style>
  </defs>
  <g>
    <g>
      <path class="cls-1" d="M1036.93,660.86c0-.69-.27-1.34-.22-2.02.18-2.3-.36-5.61.02-7.83.04-.21.06-.42.06-.64v-382.52c-.01-.15-.02-.31-.04-.46-2.56-20.77-20.35-35.66-40.7-37.61-.12-.01-.24-.02-.36-.02h-188.82c-17.33-.53-40.87,19.58-40.87,36.91v294.39c0,1.9-1.54,3.44-3.44,3.44h-10.84c-29.97,0-58.57-36.3-56.65-65.43l.04-118.61c0-1.13.91-2.04,2.04-2.04h13.22c8.04,0,16.96-14.02,17.96-21.42,1.34-9.96,1.26-33.87.25-44.04-1.3-13.06-10.79-23.32-24.07-24.16-4.08-.26-10.94,1.62-13.6.83-1.85-.55-9.51-7.14-12.84-8.85-43.81-22.6-97.11,11.69-84.86,62.22,8.42,34.73,48.82,50.13,80.47,37.55,2.26-.9,4.7.76,4.7,3.19v126.13c0,30.06,36.81,70.4,67.44,70.4h16.74c1.9,0,3.44,1.54,3.44,3.44v27.56c0,1.89-1.53,3.42-3.42,3.43-40.41.27-77.09,20.08-114.61,32.48-.08.03-.16.05-.24.07-18.97,5-38.19,6.97-57.64,5.89-.22-.01-.43-.04-.64-.09-14.85-3.53-25.47-8.72-34.37-21.85-3.62-5.34-10.6-20.74-10.6-26.81v-111.53c0-2.38,2.36-4.04,4.59-3.24,24.61,8.89,54-1.1,67.45-23.89,28.8-48.81-23.3-99.12-72.71-79.6-3.61,1.43-13.51,8.22-14.95,8.53-2.66.58-10.37-.93-14.41-.49-12.01,1.31-21.16,11.16-22.18,23.11-.86,10.02-1.18,44.2,1.82,52.4,4.42,12.07,16.7,17.37,28.79,15.82,2.06-.26,3.88,1.33,3.88,3.41l-.03,112.36c0,.13,0,.26.02.38,2.25,21.71,12.41,42.6,29.9,55.91.37.28.7.63.92,1.04.4.74.89,1.44,1.45,2.11,4.7,5.65,14.38,9.04,21.21,11.09,23.09,6.92,46.34,1.13,68.46-6.42,16.38-5.59,34.47-13.01,50.46-19.92.58-.25,1.07-.65,1.44-1.17l.6-.84c.53-.75,1.34-1.25,2.24-1.4l10.16-1.69c.17-.03.33-.07.49-.12,14.99-4.95,30.49-7.48,46.03-9.15,2.12-.23,3.9,1.51,3.8,3.64-.08,1.5.16,3,.75,4.37.45,1.05.32,2.22-.25,3.21-.18.3-.28.65-.27,1.03.43,35.21,28.01,49.42,62.6,49.42.2-.03.4-.05.6-.04,50.83,1.19,101.64,1.73,152.45,1.63,19.24.15,38.57-3.74,50.65-19.37,2.73-3.53,6.52-9.66,6.52-14.1ZM695.11,306.05c0-1.71,13.66-4.19,16.08,3.61,1.68,5.39,1.35,37.65.7,44.68-.81,8.86-7.4,10.44-14.42,8.22-1.42-.45-2.37-1.78-2.37-3.27v-53.24ZM678.22,358.37c0,1.08-.52,2.1-1.38,2.75-26.43,19.82-67.3,3.85-69.24-30.6-1.21-21.54,16.37-39.05,37.08-41.43,10.31-1.18,26.29,2.5,32.94,11.05.47.61.72,1.36.72,2.12l-.12,56.1ZM526.31,465.96c-.01,1.39-.86,2.65-2.15,3.17-6.08,2.45-13.91.73-15.07-6.59-1.36-8.55-.94-35.1-.1-44.3.47-5.22,3.15-8.51,8.68-9.13,2.34-.26,6.6.71,8.35,2.77.5.59.74,1.37.73,2.15l-.43,51.93ZM543.67,405.68c0-.97.4-1.9,1.13-2.54,3.42-3.01,13.11-5.39,16.19-5.74,57.21-6.55,65.26,77.55,7.59,80.44-5.33.27-22.46-3.08-24.85-8.65-.16-.38-.22-.8-.22-1.22l.16-62.29ZM1019.03,653.6c0,9.02-14.75,20.91-23.99,20.23-.06,0-.12,0-.18,0l-189.97-.04c-8.41-.15-21.16-12.08-21.16-20.19v-48.25c0-1.9,1.54-3.44,3.44-3.44h228.43c1.9,0,3.44,1.54,3.44,3.44v48.25ZM1015.59,592.06h-228.43c-1.9,0-3.44-1.54-3.44-3.44v-277.66c0-1.9,1.54-3.44,3.44-3.44h228.43c1.9,0,3.44,1.54,3.44,3.44v277.66c0,1.9-1.54,3.44-3.44,3.44ZM1015.59,298.66h-228.43c-1.9,0-3.44-1.54-3.44-3.44v-27.57c0-9.77,15.02-21.34,24.9-20.25.11.01.22.02.33.02l186.93.05c7.76-.79,23.15,12.07,23.15,19.19v28.56c0,1.9-1.54,3.44-3.44,3.44Z"/>
      <path class="cls-1" d="M892.48,622.61c17.07-8.16,32.39,8.16,23.37,23.31-9.3,15.62-37.22,5.75-29.33-16.64.88-2.5,3.57-5.53,5.96-6.67Z"/>
      <rect class="cls-1" x="863.77" y="268.66" width="78.12" height="12.68" rx="4.02" ry="4.02"/>
      <path class="cls-1" d="M763.97,636.69l.16,6.11c.05,1.98,1.76,3.51,3.74,3.34h0c2.17-.19,3.61-2.32,2.99-4.41s-1.23-4.14-1.44-4.82c-.04-.14-.09-.28-.15-.42-.5-1.12-2.99-6.69-2.99-6.69"/>
      <path class="cls-1" d="M701.21,644.76l11.57-3.63c3.56-1.12,3.04-6.3-.66-6.7l-1.6-.17c-.42-.05-.85-.01-1.26.1l-11.06,2.96c-2.75.74-3.46,4.3-1.21,6.04l1.09.84c.89.69,2.06.9,3.14.56Z"/>
    </g>
    <path class="cls-1" d="M558.75,660.46l-7.64-7.8c-2.14-2.18-.58-5.86,2.47-5.85h1.85c.91.01,1.77.38,2.42,1.02l6.98,6.98c1.53,1.53,1.28,4.08-.51,5.28l-1.19.8c-1.38.93-3.22.74-4.38-.45Z"/>
  </g>
  <polygon class="cls-1" points="1036.75 650.48 1036.75 661.6 1027.83 661.6 1027.83 645.45 1036.75 650.48"/>
</svg>