<?xml version="1.0" encoding="UTF-8"?>
<svg id="Warstwa_1" data-name="Warstwa 1" xmlns="http://www.w3.org/2000/svg" viewBox="0 0 1536 1024">
  <defs>
    <style>
      .cls-1 {
        fill: #e85011;
      }
    </style>
  </defs>
  <path class="cls-1" d="M801.09,244.38v39.1c0,1.04.77,1.91,1.79,2.06,10.61,1.56,21.86-2.51,30.22,6.13,2.22,2.3,4.08,6.14,4.43,9.34,1.37,12.66-.84,27.51-.13,40.6.06,1.08.96,1.91,2.05,1.94,26.83.71,49.14,18.71,53.04,45.81,6.22,43.12,8.11,89.82,12.24,133.49,4.07,43.02,10.7,88.31,12.94,131.17,2,38.17-20.8,65.51-59.46,67.64-62.04,3.41-126.69,0-189.53,0-42.09,0-58.86-27.87-57.84-62.78.89-30.48,6.81-64.75,9.7-95.55,5.2-55.31,8.47-112.68,15.39-167.59,4.07-32.29,22.12-50.95,54.81-52.17,1.06-.04,1.94-.85,2.01-1.91.82-12.9-1.75-28.28-.08-40.58.82-6.04,7.33-13.75,13.48-14.86,5.87-1.06,13.74.08,20.26-.72,1.04-.13,1.81-1.02,1.81-2.06v-39.17c0-1.1-.86-2.02-1.96-2.08-24.75-1.37-46.78,2.35-69.84,11.31-3.04,1.18-6.17,3.59-9.19,4.57-24.79,8.05-40.56-24.78-17.54-38.59,25.71-15.42,56.8-18.48,85.94-18.44,40.18.05,80.52-.57,120.61.51.21,0,.42.04.62.11,16.83,5.52,19.56,29.75,3.34,38.06-1.08.55-6.41,2.57-7.14,2.57h-29.91c-1.15,0-2.07.93-2.07,2.07ZM694.06,213.41c-12.86,1-31.35,5.28-43.3,10.13-3.63,1.48-13.97,6.24-16.74,8.36-6.83,5.24-.87,15.28,6.38,15.13,3.81-.08,12.84-5.36,17.19-6.95,13.31-4.89,28.45-9.12,42.67-9.95,42.05-2.45,86.47,1.91,128.77.03,10.61-1.21,12.56-14.02,1.99-16.95-.22-.06-.45-.08-.67-.07-44.51,2.33-92.16-3.17-136.28.26ZM786.07,242.31h-43.62c-1.15,0-2.07.93-2.07,2.07v39.57c0,.55.22,1.08.61,1.47h0c.39.39.92.61,1.47.61h43.67c.16,0,.55-.36,1.01-.62.64-.35,1.02-1.05,1.02-1.79v-39.24c0-1.15-.93-2.07-2.07-2.07ZM823.31,343.52c1.15,0,2.07-.93,2.07-2.07v-38c0-1.1-5.46-6.31-7.64-5.31l-105.32.03c-2-.15-6.86,2.59-6.86,4.47v38.81c0,1.15.93,2.07,2.07,2.07h115.68ZM879.78,423.67c1.22,0,2.17-1.05,2.07-2.27-.86-9.68-.93-20.06-2.43-29.49-3.31-20.78-18.96-34.13-39.82-35.48-49.7-3.22-102.85,2.51-152.92.02-.11,0-.23,0-.34,0-18.34,1.96-32.36,14.93-36.54,32.71-.02.1-.04.2-.05.31l-3.05,31.5c-.12,1.22.84,2.27,2.06,2.27l231.03.42ZM881.78,436.63h-234.25c-1.07,0-1.96.81-2.06,1.88l-14.99,156.97c-.12,1.22.84,2.27,2.06,2.27h263.04c1.22,0,2.17-1.04,2.07-2.25l-13.8-156.97c-.09-1.07-.99-1.89-2.07-1.89ZM898,609.89h-267.36c-1.12,0-2.03.88-2.07,2-.16,4.57-.33,9.28-.75,13.78-2.51,27.19-2.7,55.56,14.19,72.45,7.93,7.93,20.02,7.16,30.71,7.16,59.68,0,121.7,3.42,182.24,3.42,29.64-1.06,50.98-21.07,49.79-51.4,0-.05,0-.11-.01-.16l-4.69-45.39c-.11-1.06-1-1.86-2.06-1.86Z"/>
  <path class="cls-1" d="M732.12,460.34c11.43-.49,22.68,4.6,30.63,12.67,11.93-9.98,24.22-15.8,39.98-10.88,18.36,5.73,28.92,22.78,24.71,41.73s-24.83,38.92-39.72,50.96c-3.06,2.47-18.81,14.58-21.22,15.21s-6.26.44-8.6-.72c-4.39-2.19-14.45-10.25-18.71-13.68-16.25-13.08-40.17-35.12-41.71-57.07-1.42-20.33,14.45-37.35,34.64-38.21ZM728.84,472.46c-10.51,1.44-19.48,10.43-20.09,21.22-1.18,20.82,28.28,46.24,43.85,57.42,2.21,1.58,9.15,7.24,11.26,6.64,1.84-.52,11.33-8.05,13.68-9.86,12.62-9.71,36-31.15,38.57-47.25,3.55-22.27-17.32-34.63-36.79-25.45-7.51,3.54-8.07,8.18-13.02,12.89-5.59,5.32-6.48-.62-9.32-3.69-8.4-9.08-14.96-13.72-28.15-11.91Z"/>
</svg>