<?xml version="1.0" encoding="UTF-8"?>
<svg id="Warstwa_1" data-name="Warstwa 1" xmlns="http://www.w3.org/2000/svg" viewBox="0 0 1536 1024">
  <defs>
    <style>
      .cls-1 {
        fill: #f97316;
        stroke: #f97316;
        stroke-miterlimit: 10;
        stroke-width: 4px;
      }
    </style>
  </defs>
  <path class="cls-1" d="M770.41,543.82c-7.2,19.89-22.08,37.4-35,54.13-20.37,26.38-60.36,78.74-90.7,90.85-53.27,21.25-120.92-37.81-95.98-91.88,11.01-23.87,59.98-63.53,81.64-81.01,15.04-12.14,34.06-27.78,50.56-37.33,5.72-3.31,11.38-4.61,17.17-7.46l-32-32.88c-13.51-10.53-29.98-3.65-45.61-4.5-62.23-3.39-116.35-64.52-95.47-127.5,2.78-8.38,6.53-14.3,16.14-9.21l48.23,44.59c15.23,7.88,33.1-3.89,41.56-16.53,6.06-9.06,11.26-22.23,3.53-31.84l-45.16-43.55c-5.43-11.48,5.79-13.95,14.33-15.99,59.93-14.32,124.85,26.79,124.94,91.21.02,12.07-5.08,25.38,2.04,36.49l60.73,52.59,97.38-98.91c3.71-13.77,1.77-30.49,13.5-40.72,20.27-11.19,41.24-31.15,61.48-41.21,4.09-2.03,7.29-2.82,11.55-.56l29.71,26.97c5.47,7.33-2.31,17.31-6.05,24.41-5.94,11.28-23.79,45.79-31.79,52.82-11.27,9.9-25.65,9.42-39.44,12.31l-95.6,98.91c8.47,7.98,17.37,15.58,26.21,23.13,24.07,20.54,48.41,40.93,72.73,61.16,17.76,14.77,38.17,28.89,55,44.4,52.68,48.56,3.03,130.24-63.46,111.93-24.57-6.77-39.06-28.82-55.62-46.25-28.96-30.48-58.76-60.23-87.94-90.32-.98-1.01-7.07-9.63-8.58-8.25ZM709.6,464.95c1.16-4.41,6.4-7.26,8.27-11.05,2.95-5.97,2.49-10.99,7.5-17.15,11.92-14.65,31.65-12.77,44.51-.61l12.83-13.5-55.86-47.63c-19.59-18.69-9.06-33.21-10.63-55.9-2.21-31.91-24.64-58.99-54.05-69.99-19.82-7.41-38.75-8-59.35-3.49-.52,1.92.5,1.39,1.05,1.87,9.56,8.45,37.82,32.94,42.91,42.47,17.67,33.08-32.78,84.68-67.35,59.14-14.07-10.39-26.63-27.32-40.68-38.18-.82-.64-1.05-1.59-2.46-1.22-14.79,52.8,24.02,104.53,76.9,111.62,20.05,2.69,42.51-6.6,59.47,7.07,12.38,9.97,22.82,25.16,34.88,35.76l2.06.8ZM855.55,406.35c21.88-22.32,43.49-44.97,65.24-67.43,11.11-5.01,22.49-1.6,33.88-8.02,7.76-4.37,19.67-27.49,24.53-36.25,5.11-9.2,10.07-18.61,14.63-28.1l-23.86-22.19h-1.54s-56.18,37.55-56.18,37.55c-12.59,9.2-6.62,26.42-12.86,38.89l-120.75,124.03,20.82,18.42c16.04-16.83,32.74-33.02,49.01-49.62,2.36-2.4,4.74-4.9,7.08-7.29ZM744.74,438.02c-6.73.97-14.66,9.63-13.76,16.6.52,4.01,9.88,12.65,13.12,15.69,13.13,12.29,28.67,23.13,42.43,34.79,14.49,4.75,24.49-10.22,15.06-22.46-10.64-13.81-31.24-26.45-43.13-39.84-3.81-2.95-8.7-5.5-13.73-4.77ZM808.2,470.72v1.2c15.37,13.94,10.25,39.43-9.68,45.38-3.15.94-6.05.57-8.61,1.25s-12.93,10.98-12.94,13.37l64.93,66.5c24.48,20.39,56.4,73.48,87.83,79.75,39.13,7.8,74.86-28.25,64.7-67.16-5.85-22.42-40.66-44.22-58.47-59-35.43-29.41-70.78-58.95-105.59-89.09-2.14-1.85-5.39-7.08-8.19-5.79-4.32,1.99-8.87,12.1-13.98,13.6ZM776.97,511.8c-11.22-6.96-22.46-15.97-32.42-24.68-5.27-4.6-11.41-10-16.06-15.16-1.14-1.27-4.31-7.15-5.72-6.17-2.68,4.24-7.49,10.71-11.57,13.5-5.77,3.94-16.1,4.79-23.21,8.83-23.56,13.38-56.95,41.89-77.79,60.22-32.56,28.63-78.91,63.06-39.84,108.04,27.08,31.18,61.57,33.14,92.44,6.16,26.6-23.25,70.03-76.56,88.72-106.78,6.61-10.68,8.48-23.96,15.99-33.3,1.35-1.68,10.38-9.3,9.45-10.65Z"/>
  <path class="cls-1" d="M706.15,506.21c1.25,1.3,1.7,5.61.85,7.4-1.06,2.22-7.85,8.32-10.08,10.51-21.68,21.26-44.1,42.08-65.76,63.21-8.4,8.19-21.29,23.84-29.93,30.04-7.42,5.33-13.17-1.63-7.76-9.4,6.57-9.45,22.91-22.29,31.59-30.85,24-23.68,48.02-47.21,71.84-71.09,1.94-2.08,7.59-1.54,9.27.18Z"/>
  <path class="cls-1" d="M729.12,533.28c2.51-.52,4.8.33,6.38,2.32.89,2.85.83,6.31-1.23,8.63l-98.56,102.7c-5.31,4.78-12.68,1.06-10.33-6.22,22.93-25.38,47.38-49.58,71.12-74.28,5.86-6.09,11.3-12.91,17.21-18.94,2.62-2.67,12.88-13.69,15.41-14.21Z"/>
  <path class="cls-1" d="M939.42,599.87c40.81-6.36,39.44,52.34,2.35,48.18-27.03-3.03-28.46-44.11-2.35-48.18ZM941.87,611.37c-2.55.53-6.56,3.85-7.87,6.09-7.3,12.52,10.06,26.17,20.74,14.99,9.22-9.65-.64-23.63-12.88-21.08Z"/>
</svg>