<?xml version="1.0" encoding="UTF-8"?>
<svg id="Warstwa_1" data-name="Warstwa 1" xmlns="http://www.w3.org/2000/svg" viewBox="0 0 1536 1024">
  <defs>
    <style>
      .cls-1 {
        fill: #e85011;
      }
    </style>
  </defs>
  <path class="cls-1" d="M744,427.62c-1.97,1.71-38.79,1.82-45.24,2.25-26.63,1.77-59.52,4.66-85.33,10.67-13.51,3.15-17.79,2.68-17.22,17.86.44,11.78,2.61,35.7,5.12,46.88,2.04,9.11,10.68,10.04,18.56,11.44,26.61,4.72,56.83,4.92,83.91,6.09,57.9,2.51,116.01,2.62,173.95-1.97,13.06-1.03,34.52-2.1,46.53-5.47,9.29-2.61,10.05-5.5,11.69-14.31,2.32-12.49,4.9-33.15,5.29-45.72.34-11.01-4.58-11.51-13.99-13.99-33.02-8.71-78.91-10.65-113.46-12.54-5.41-.3-13.14.93-18.02.02-6.72-1.26-6.18-12.11,1.18-13.76,39.68.73,80.46,1.43,119.62,7.96,18.17,3.03,42.88,6.46,42.7,30.29-.07,9.77-1.94,23.91-3.16,33.92-2.23,18.4-3.28,41.3-25.75,44.75l-31.4,146.1c-9.83,30.7-66.55,30.46-93.21,31.79-37.82,1.89-78.27,2.45-115.88-3.15-21.78-3.24-47.17-7.35-52.34-32.66l-30.48-140.52c-4.73-3.58-10.18-3.92-14.84-8.16-8.18-7.45-9.5-23.51-10.85-34.15-1.39-11-2.93-24.88-3.18-35.84-.61-26.62,22.01-28.92,42.72-32.36,24.75-4.12,49.81-5.19,74.79-7.21,13.7,2.04,30.87-2.97,43.98-.9,6.02.95,7.45,9.98,4.31,12.7ZM911.25,534.86c-44.01,5.14-88.19,7.68-132.54,6.95-38.76,1.28-78.1,0-116.95-2.97-4.7-.36-33.98-4.31-35.5-2.98l30.6,138.89c3.41,6.62,10.57,8.9,17.39,10.61,46.4,11.63,134.77,10.23,182.22,1.2,9.77-1.86,19.89-3.61,24.77-13.23l30.02-138.47Z"/>
  <path class="cls-1" d="M878.99,264.11c3.02,2.5-.41,5.01-2.41,6.58-9.76,7.62-28.47,13.71-40.64,22.36-49.68,35.32-59.73,93.08-56.69,150.82l51.55.95c32.42,2.35,64.49,6.49,96.46,12.05,1.73,1.18-8.83,3.48-9.79,3.7-35.51,7.78-73.72,8.37-109.71,9.3-51.7,1.34-103.42,1.94-154.99-4.01-14.57-1.68-29.05-4.71-43.52-6.99-.21-2.62-.12-1.66,1.52-1.96,36.38-6.66,73-10.72,109.94-13.07,10.64-1.3,26.02,1.89,36.04.04,1.14-.21,2.02-.34,2.35-1.64-.48-18.01-1.43-34.94-6.36-52.36-11.62-41.06-37.39-71.25-76.14-88.86-5.48-2.49-32.44-10.98-33.28-15.78-1.45-8.28,25.88-1.95,29.92-.86,49.16,13.3,70.21,46.06,91.92,88.07.53,1.03-.53,1.89,2.08,1.43,7.29-44.53,38-88,80.33-105.18,6.24-2.53,26.11-8.97,31.41-4.57Z"/>
  <path class="cls-1" d="M770.49,326.63c-13.37-30.24.06-65.45,24.29-85.74,32.15-26.93,84.68-31.45,124.83-25.89,5.89.82,29.79,5.32,32.54,9.46,3.23,4.86.8,15.88-.19,21.61-10.37,59.9-62.51,126.26-129.95,114.54-6.45-1.12-27.32-5.7-16.28-15.76,3.93-3.58,14.43.59,20.04,1,43.04,3.2,75.3-22.09,94.66-58.31,8.54-15.99,15.18-34.66,16.41-52.73-38.27-9.38-88.01-9.69-122.5,11.64-15.39,9.52-30.81,28.56-32.97,47.03-1.4,11.98,4.1,26.81-8.61,34.01l-2.26-.84Z"/>
  <path class="cls-1" d="M585.24,258.87c13.35,56.28,54.66,113.28,120.02,97.49,7.35-1.78,17.78-9.34,22.23.75,2.28,5.17-1.83,6.52-5.87,8.62-34.84,18.1-81.85,5.69-108.91-20.85-18.01-17.67-42.43-62.53-43.39-87.69-.28-7.48,1.29-9.33,7.66-12.1,54.02-23.48,157.33-15.81,176.97,51.55,2.95,10.13,4.33,26.12-1.21,35.19l-10.98-11c-4.25-77.83-99.8-80.18-156.53-61.97Z"/>
</svg>