<?xml version="1.0" encoding="UTF-8"?>
<svg id="Warstwa_1" data-name="Warstwa 1" xmlns="http://www.w3.org/2000/svg" viewBox="0 0 1536 1024">
  <defs>
    <style>
      .cls-1 {
        fill: #f97316;
      }
    </style>
  </defs>
  <g>
    <path class="cls-1" d="M636.42,680.71c-15.33.02-27.93-13.8-28.29-29.2,0-.05,0-.11,0-.16l14.9-241.43c0-.08.02-.17.03-.25,1.99-9.22,6.01-16.59,12.55-23.37,22.24-23.08,52.05-51.11,76.42-71.95,3.75-3.21,13.19-11.77,17.8-11.82,3.73-.05,4.81,7.02,2.88,9.89-.08.12-.19.23-.3.32-5.8,4.79-11.69,9.54-17.21,14.66-22.73,21.06-49.74,44.65-70.62,67.01-4.1,4.39-6.66,8.53-8.78,14.13-.06.16-.09.32-.1.49-3.44,76.89-11.52,153.78-14.53,230.67-.49,12.43-2,22.57,11.92,28.06.19.07.39.11.59.11,71.36.11,143.16-2.19,214.48-4.49.16,0,.32-.03.47-.08,6.09-2.05,10.52-6.86,12.86-12.7.06-.16.1-.32.11-.49,4.71-68.69,8.89-137.92,12.07-206.83.51-10.98,2.04-24.47,1.73-35.08-.21-7.23-2.57-13.44-7.21-18.97-.06-.07-.13-.14-.2-.2-25.94-21.71-48.59-51.08-74.28-72.53-8.52-7.11-16.56-9.57-27.18-11.35-.73-.12-1.27-.73-1.3-1.47-.2-5.01-1.23-9.59,5.3-9.83,8.88-.34,22.25,6.28,28.93,11.93,27.68,23.37,53.76,54.41,80.35,79.36.21.19.35.45.43.72,3.44,12.64,12.92,15.94,20.02,24.6,5.93,7.23,9.46,16.88,9.6,26.29,0,.04,0,.08,0,.12l-9.68,238.88s0,.08,0,.12c-1.46,14.56-13.49,25.19-27.41,28.14-.1.02-.21.03-.31.04l-204.02,4.68c-15.72-.06-29.15-10.73-30.47-26.58-.07-.79-.73-1.4-1.53-1.4ZM872.87,656.04c-4.69,11.07-16.08,19.47-28.15,20.47-.04,0-.08,0-.13,0l-193.64,4.16c-2.41.43.41,6.9,1.16,8.39,2.54,5.08,11.12,8.34,16.6,8.22l200.81-4.59c.08,0,.16,0,.24-.02,10.02-1.66,17.45-7.56,18.89-17.81,0-.06.01-.12.02-.18l9.78-238.7c0-.11,0-.21-.02-.31-1.06-6.74-3.34-14.58-8.54-19.33-.93-.85-2.43-.3-2.6.95-.66,5.1-1.12,16.38-1.24,18.4-3.85,65.42-5.98,130.92-10.55,196.28-.58,8.35.83,15.87-2.64,24.07Z"/>
    <path class="cls-1" d="M834.42,325.85c-.64-.31-3.12-3.52-3.44-4.3-1.47-3.64,6.11-14.79,7.94-19.21,3.66-8.8,6.98-21.6,7.33-31.13,1.71-45.75-36.87-58.12-66.72-26.01-21.18,22.79-29,61.34-23.63,91.6.13.75.79,1.27,1.55,1.28,21.44.19,37.65,16.71,33.7,38.95-4.18,23.58-31.97,36.72-52.64,24.32-24.17-14.49-19.99-48.7,4.23-60.19.61-.29.98-.93.89-1.6-5.34-41.59,6.3-95.73,45.88-117.17,32.14-17.41,62.71-.96,67.89,34.9,2.79,19.3-3.69,46.1-14.02,62.56-1.68,2.68-5.07,7.86-8.97,6ZM747.18,354.68c-.33-.94-1.46-1.33-2.31-.8-27.78,17.55,2.68,57.08,27.78,34.21,12.73-11.6,8.34-34.28-9.29-37.53-1.31-.24-5.63-1.55-5.07,1.19.99,4.87,7.91,17.12,7.2,20.11-.76,3.2-4.63,5.04-7.58,3.97-1.54-.56-5.26-5.73-5.75-7.12l-4.97-14.03Z"/>
    <path class="cls-1" d="M780.75,535.56c47.47-20.9,78.2,50.17,32.9,71.44-50.69,23.8-80.53-50.47-32.9-71.44ZM781.2,552.39c-15.74,12.5-11.48,39.7,10.8,43.57,22.31,3.87,37.07-22.59,23.88-39.38-8.26-10.52-24.2-12.51-34.68-4.19Z"/>
    <path class="cls-1" d="M682.29,451.47c56.85-29.26,86.47,62.58,23.63,73.51-41.5,7.22-60.59-54.49-23.63-73.51ZM689.51,464.52c-5.05,2.73-10.67,10.63-11.78,16.19-5.21,26.01,27.3,39.79,43.38,20.02,16.81-20.67-6.84-49.61-31.6-36.21Z"/>
    <path class="cls-1" d="M799.77,449.73c7.57-5.15,14.96.28,12.12,8.68-.06.16-.14.32-.24.46l-111.8,148.41c-6.65,8.09-18.54.92-12.95-8.59.04-.07.09-.14.14-.2,33.1-41.32,63.53-84.72,95.62-126.77,2.58-3.39,15.25-20.72,17.1-21.98Z"/>
    <path class="cls-1" d="M535.02,374.23c3.18-1.92,6.9-.17,10.15,1.01,11.55,4.2,24.67,11.94,36.04,17.21,4.98,2.31,8.82,1.09,10.32,8.09,1.19,5.56-4.26,7.7-8.97,6.57-13.54-3.26-31.63-17.7-46.07-21.41-.09-.02-.17-.05-.25-.08-4.53-1.94-5.52-8.79-1.21-11.39Z"/>
    <path class="cls-1" d="M940.71,542.18c.58-1.32,3.79-3.83,5.48-3.52l53.49,8.45c.14.02.27.06.4.12,7.21,3.12,5.82,11.67-2.23,12.28-8.06.61-35.43-5.09-44.74-7.02-1.84-.38-8.8-1.69-9.74-2.42-1.79-1.39-3.56-5.8-2.65-7.88Z"/>
    <path class="cls-1" d="M524.36,443.23c.72-1.52,3.77-3.71,5.56-3.78,13.96.69,31.05-3.39,44.68-2.18,7.37.66,7.93,10.8.39,12.78-11.78,3.1-31.24-.66-43.93,2.33-.15.04-.3.05-.46.04-4.23-.31-8.26-4.94-6.24-9.19Z"/>
    <path class="cls-1" d="M983.99,484.28c4.48,1.97,5.26,9.12.42,11.73-11.83,6.4-29.16,7.92-41.64,13.87-.13.06-.27.11-.41.13-6.08.99-9.5-8.46-3.85-11.51,8.08-4.38,22.05-7.48,31.05-10.16,3.2-.95,11.91-5.17,14.44-4.06Z"/>
    <path class="cls-1" d="M582.53,326.98c2.77-1.67,5.32-1.15,7.66.86,9.36,8.05,17.39,23.62,26.56,32.62.13.12.23.26.31.42,2.75,5.63-4.33,12.7-10.26,7.46-3.83-3.39-22.81-27.02-25.38-31.53-1.89-3.32-2.73-7.52,1.11-9.83Z"/>
    <path class="cls-1" d="M929.36,580.01c2.56-1.54,4.83-1.1,7.29.29,10.12,5.71,20.53,18.03,31.23,23.91.18.1.34.23.46.38,5.05,6.3-.93,14.12-8.14,10.02-.07-.04-.15-.09-.21-.14l-31.29-24.19c-2.9-2.66-2.85-8.15.66-10.27Z"/>
  </g>
  <path class="cls-1" d="M879.79,385.11s18.46,21.21,20.45,25.32c1.99,4.11-12.9,3.33-12.9,3.33l-16.89-23.22,9.34-5.42Z"/>
</svg>