<?xml version="1.0" encoding="UTF-8"?>
<svg id="Warstwa_1" data-name="Warstwa 1" xmlns="http://www.w3.org/2000/svg" viewBox="0 0 1536 1024">
  <defs>
    <style>
      .cls-1 {
        fill: #e85011;
      }

      .cls-2 {
        fill: #fdfdfd;
      }
    </style>
  </defs>
  <path class="cls-1" d="M766.85,252.15c190.88-13.34,329.46,181.64,234.73,353.73-86.38,156.91-312.24,165.83-413.74,18.7-103.63-150.21-1.42-359.82,179.02-372.42ZM776.85,268.14c-14.09.81-17.83,1.28-29.13,9.87-4.62,3.51-21.07,19.46-21.51,24.52l31.07,37.58c28.68,1.59,57.28,4.09,85.26,10.74l40.38-29.68c.98-2.9-1.86-7.69-3.33-10.36-4.8-8.65-20.7-30.65-29.25-34.75-3.98-1.91-17.94-4.12-23.07-4.93-16.42-2.58-33.79-3.96-50.42-3ZM732.06,274.86c-29.54,7.8-57.55,21.17-81.9,39.59-3.35,2.53-12.16,8.79-14.44,11.33-2.41,2.68,6.03,8.38,7.63,7.96,1.82-.49,12.38-9.73,15.4-11.69,10.72-6.98,23.19-13.18,35.06-17.94,4.79-1.92,15.09-3.96,18.63-6.37,2.54-1.74,6.61-9,9.11-11.89,3.29-3.8,7.63-6.8,10.51-10.98ZM994.05,398.85c.69-.83-6.05-13.37-7.15-15.34-20.96-37.38-57.37-73.01-96.46-91.54-3.21-1.52-6.89-2.88-10.36-3.63,2.74,3.86,5.89,7.58,8.4,11.59,2.98,4.77,7.72,16.32,10.66,19.34,3.36,3.45,17.76,10.84,23.24,14.76,15.65,11.2,30.62,25.33,42.64,40.36,2.94,3.67,11.4,17.63,13.31,19.18,2.29,1.84,12.5,2.83,15.72,5.28ZM711.83,311.02c-2.71.35-9.77,3.2-12.76,4.35-19.17,7.38-36.32,19.5-53.49,30.51-3.01,3.48-13.87,33.79-14.2,38.6-.16,2.41,4.6,23.22,5.61,23.93,2.57,1.8,21.73-2.32,26.52-2.6,10.9-.64,21.72.74,32.52,1.58,14.68-20.24,28.14-41.31,46.46-58.6,3.44-3.56-2.95-9.25-5.47-12.41-6.73-8.45-14.41-16.36-21.43-24.59-1.16-1.16-2.32-.96-3.78-.77ZM892.8,331.02c-5.45,4.09-39.63,25.73-39.73,30.3,4.11,10.57,9.67,20.46,14.16,30.85,4.39,10.17,10.13,28.97,15.59,37.41,1.11,1.71,1.87,2.56,3.94,3.06,10.17,2.46,22.64,2.96,33.49,5.51,9.34,2.19,18.6,5.12,27.56,8.54,1.15.33,2.15.24,3.23-.29,2.75-1.35,9.07-19.57,10.46-23.58,1.75-5.05,7.55-19.69,6.02-23.9-1.34-3.69-14.53-19.23-17.96-23.07-5.53-6.18-13.32-13.98-19.5-19.5-4.97-4.44-32.32-26.36-37.27-25.32ZM631.79,345.64c1.18-2.36-4.34-7.82-6.23-7.82-3.99,0-22.82,26.41-25.92,31.12-6.53,9.93-12.99,20.79-17.09,31.9,10.95-9.37,23.7-16.38,37.28-21.21,3.54-10.69,6.45-21.74,10.07-32.4.51-1.5,1.81-1.4,1.9-1.58ZM755.76,355.06c-19.02,16.71-33.77,37.54-47.3,58.78-.58,1.06-.25,1.95.02,3.01,1.08,4.32,8.26,17.19,10.72,22.36,6.1,12.79,15.22,34.28,22.66,45.34,1.16,1.72,2.43,3.73,4.45,4.55,4.35,1.76,17.59,1.17,23.24,1.76,15.3,1.62,33.03,5.37,48.02,5.98,2.17.09,4.4.41,6.47-.51l46.81-60.12c.61-3.02-20.77-50.15-23.93-56.72-1.77-3.66-6.29-14.47-9.35-15.65-8.45-3.25-31.18-5.91-41.01-6.99-13.48-1.47-27.25-2.22-40.79-1.8ZM620.05,393.85c-13.93,5.28-26.37,14.25-37.46,24.03-2.51,2.21-10.17,8.44-11.3,10.7-2.81,5.59-6.18,25.89-7.1,32.9-2.79,21.36-2.51,43.14.88,64.37l18.45-17.04c5.85-26.47,15.26-51.79,28.74-75.26,2.07-3.6,11.01-15.41,11.61-17.43,1.33-4.48-3.78-16.82-3.82-22.27ZM1004.05,558.85c13.38-40.55,14.71-85.24,2.93-126.42-.99-3.45-2.84-10.79-4.49-13.51-1.9-3.11-18.76-11.65-21.82-11.15l-17.58,47.51c8.18,17.73,14.85,36.13,18.68,55.35,1.54,7.73,2.09,23.34,4.56,29.44,1.98,4.91,14.59,13.28,17.73,18.76ZM633.4,425.19c-3.49,3.34-11.28,17.68-13.86,22.64-6.81,13.13-23,50.8-22.53,64.49.32,9.04,14.78,36.39,19.87,45.2,2.98,5.15,18.81,30.98,23.61,31.26,19.91-4.94,40.27-8.46,59.63-15.37l30.47-74.53.54-3.51c-4.96-11.82-10.66-23.34-16.21-34.88-2.7-5.6-17.18-36.17-19.87-38.13-4.15-3.01-21.83-3.74-27.53-3.55-7.19.23-20.58,1.77-27.5,3.49-2.29.57-4.87,1.21-6.62,2.88ZM883.67,445.13c-3.1.36-9.31,8.53-11.58,11.24-8.81,10.54-18.36,23.37-26.44,34.56-3.73,5.16-11.21,13.11-10.36,19.16,7.7,22.11,10.23,47.04,16.85,69.18.6,2.02,1.1,4.97,2.46,6.54,2.78,3.21,33.75,13.16,39.94,15.06,4.62,1.42,22.45,7.42,25.78,6.82,7.56-1.34,37.92-40.66,43.15-48.93,2.05-3.24,7.91-12.23,8.86-15.22,1.5-4.75-3.35-28.24-4.76-34.71-1.89-8.62-11.47-42.91-17.53-47.47-4.53-3.41-28.4-9.31-35.16-10.84-6.11-1.38-26.28-5.98-31.21-5.4ZM744.75,503.05c-2.73.84-9.59,18.07-11.17,21.82-5.42,12.86-15.61,35.51-18.83,48.17-1.09,4.29-1.27,4.65,1.78,7.86,7.48,7.89,22.62,19.43,31.62,26.38,3.64,2.81,26.12,19.5,28.41,19.51l62.58-37.36c1.15-1.15.97-2.46.87-3.91-.52-8.22-5.35-23.82-7.43-32.67-1.4-5.95-9.07-39.31-11.54-41.46l-76.29-8.33ZM628.06,645.85v-19.5c0-.83-5.07-3.29-5.1-6.99-.04-4.88,4.48-3.75,5.11-5.22,1.18-2.74,1.5-13.59.75-16.54-.62-2.44-9.35-12.23-11.57-15.43-12.5-17.99-24.07-37.13-30.19-58.31-8.32.43-4.46,11.47-5,11.99-.14.14-3.58.14-3.9-.13-.43-.36.7-3.93-1.58-2.86-1.05.49-7.39,8.37-7.45,9.42-.2,3.39,5.6,19.55,7.19,23.81,10.96,29.4,29.1,58.17,51.75,79.75ZM929.07,664.85c23.95-17.94,44.14-42.71,58.51-68.98,2.09-3.81,10.8-20.22,10.31-23.31-.36-2.24-11.75-15.87-14.09-16.95-4.85-2.23-3.87,1.34-6.32,5.16-9.91,15.41-20.68,30.38-33.39,43.61-2.98,3.11-13.2,10.44-14.57,13.51-.37.84.28,17.04.55,18.44.46,2.31,2.82,2.99,2.94,4.96.15,2.43-2.5,4.85-2.9,7.11-.84,4.72.26,11.33-1.05,16.44ZM701.85,588.05c-8.07.71-23.66,6.36-32.58,8.52-4.16,1.01-25.44,4.55-26.7,6.3-3.85,5.36-.91,46.32-.3,55.27,1.52,4.92,31.7,23.91,37.76,27.24,8.7,4.77,38.73,19.1,47.23,18.26,4.62-.45,17.69-5.54,22.47-7.6,3.1-1.34,14.71-6.78,15.8-9.2,1.01-13.5,1.23-26.96,1.52-40.47.04-1.96,1.29-3.93,1.03-5.96-.5-3.81-26.63-21.65-31.5-25.58-10.86-8.77-21.15-18.54-32.26-26.82-.84-.27-1.65-.03-2.48.04ZM847.81,600.04c-14.05,8.63-27.81,17.72-42.08,25.98-3.76,2.18-22.6,11.16-23.48,13.52-.51,1.38-1.1,6.89-1.24,8.76-.92,12.89-.22,26.61-1.51,39.53.81,1.64,20.09,11.25,23.34,12.72,4.48,2.02,19.11,8.65,22.97,9.11,4.37.51,19.36-3.69,24.45-5.1,22.54-6.26,45.67-16.79,64.61-30.39,1.42-14.93,3.9-32.95,2.19-47.85-.21-1.8-.63-3.74-1.97-5.03-1.96-1.9-23.78-6.88-28.58-8.42-11.91-3.83-23.64-8.16-35.24-12.83h-3.49ZM767.56,712.85c10.26.68,21.17-.5,31.5,0l-23.27-12.22c-9.17-2.89-18.02,8.1-27.72,8.23-.16,1.54,2.65,1.41,3.81,1.67,4.36.95,11.33,2.04,15.68,2.32Z"/>
  <path class="cls-1" d="M550.79,224.02c3.16-.65,5.66.67,8.19,2.4,11.35,15.51,26.74,29.67,38.05,44.96,1.12,1.51,3.1,3.7,3.78,5.22,3.71,8.18-4.72,14.08-12.31,10.3l-41.88-49.12c-4.47-4.43-1.73-12.56,4.17-13.76Z"/>
  <path class="cls-1" d="M502.78,290.04c1.8-.4,3.56-.4,5.31.27l51.32,22.68c8.26,5.78,1.95,17.43-7.63,14.63l-50.65-21.36c-6.98-3.84-6-14.54,1.65-16.23Z"/>
  <path class="cls-1" d="M624.76,195.06c4.46-1.33,9.91.42,11.81,4.77l12.16,47.68c-.92,10.15-13.49,11.68-17,2.15-.24-11.45-14.24-40.74-11.47-50.12.36-1.2,3.29-4.13,4.49-4.49Z"/>
  <path class="cls-2" d="M755.76,355.06c13.54-.42,27.31.33,40.79,1.8,9.83,1.08,32.56,3.73,41.01,6.99,3.06,1.18,7.59,11.99,9.35,15.65,3.17,6.57,24.54,53.7,23.93,56.72l-46.81,60.12c-2.07.92-4.3.6-6.47.51-14.99-.61-32.72-4.37-48.02-5.98-5.64-.6-18.88,0-23.24-1.76-2.02-.82-3.29-2.83-4.45-4.55-7.44-11.05-16.56-32.54-22.66-45.34-2.46-5.17-9.64-18.04-10.72-22.36-.27-1.06-.59-1.95-.02-3.01,13.54-21.24,28.28-42.07,47.3-58.78Z"/>
  <path class="cls-2" d="M633.4,425.19c1.75-1.67,4.33-2.31,6.62-2.88,6.92-1.72,20.31-3.26,27.5-3.49,5.7-.18,23.38.55,27.53,3.55,2.69,1.95,17.17,32.52,19.87,38.13,5.56,11.54,11.26,23.06,16.21,34.88l-.54,3.51-30.47,74.53c-19.36,6.91-39.72,10.42-59.63,15.37-4.8-.28-20.63-26.11-23.61-31.26-5.1-8.81-19.56-36.16-19.87-45.2-.48-13.69,15.71-51.36,22.53-64.49,2.58-4.97,10.36-19.3,13.86-22.64Z"/>
  <path class="cls-2" d="M883.67,445.13c4.92-.58,25.09,4.02,31.21,5.4,6.76,1.53,30.63,7.43,35.16,10.84,6.06,4.56,15.65,38.85,17.53,47.47,1.41,6.47,6.26,29.95,4.76,34.71-.94,2.98-6.81,11.97-8.86,15.22-5.23,8.27-35.59,47.59-43.15,48.93-3.33.59-21.16-5.41-25.78-6.82-6.19-1.9-37.17-11.84-39.94-15.06-1.36-1.57-1.86-4.52-2.46-6.54-6.62-22.13-9.15-47.07-16.85-69.18-.84-6.05,6.63-14,10.36-19.16,8.08-11.19,17.63-24.02,26.44-34.56,2.27-2.72,8.48-10.88,11.58-11.24Z"/>
  <path class="cls-2" d="M847.81,600.04h3.49c11.6,4.67,23.33,9.01,35.24,12.83,4.79,1.54,26.61,6.53,28.58,8.42,1.34,1.29,1.76,3.24,1.97,5.03,1.7,14.9-.78,32.92-2.19,47.85-18.95,13.6-42.07,24.13-64.61,30.39-5.09,1.41-20.09,5.62-24.45,5.1-3.87-.45-18.49-7.08-22.97-9.11-3.25-1.47-22.53-11.08-23.34-12.72,1.29-12.92.59-26.65,1.51-39.53.13-1.88.72-7.38,1.24-8.76.88-2.36,19.71-11.34,23.48-13.52,14.27-8.27,28.04-17.36,42.08-25.98Z"/>
  <path class="cls-1" d="M744.75,503.05l76.29,8.33c2.47,2.15,10.14,35.52,11.54,41.46,2.08,8.85,6.91,24.46,7.43,32.67.09,1.45.28,2.76-.87,3.91l-62.58,37.36c-2.29,0-24.77-16.7-28.41-19.51-9-6.96-24.14-18.49-31.62-26.38-3.05-3.21-2.87-3.57-1.78-7.86,3.22-12.66,13.4-35.31,18.83-48.17,1.58-3.75,8.45-20.98,11.17-21.82Z"/>
  <path class="cls-2" d="M701.85,588.05c.83-.07,1.64-.31,2.48-.04,11.11,8.27,21.4,18.05,32.26,26.82,4.87,3.93,31,21.77,31.5,25.58.27,2.03-.98,3.99-1.03,5.96-.29,13.51-.5,26.98-1.52,40.47-1.09,2.42-12.7,7.86-15.8,9.2-4.78,2.06-17.85,7.15-22.47,7.6-8.5.83-38.54-13.49-47.23-18.26-6.07-3.33-36.24-22.31-37.76-27.24-.61-8.95-3.55-49.91.3-55.27,1.26-1.76,22.54-5.3,26.7-6.3,8.92-2.16,24.51-7.8,32.58-8.52Z"/>
  <path class="cls-2" d="M776.85,268.14c16.63-.96,33.99.42,50.42,3,5.13.8,19.09,3.02,23.07,4.93,8.56,4.1,24.46,26.1,29.25,34.75,1.48,2.66,4.32,7.46,3.33,10.36l-40.38,29.68c-27.98-6.65-56.58-9.15-85.26-10.74l-31.07-37.58c.44-5.06,16.89-21.01,21.51-24.52,11.3-8.59,15.03-9.06,29.13-9.87Z"/>
  <path class="cls-1" d="M892.8,331.02c4.94-1.04,32.3,20.88,37.27,25.32,6.18,5.52,13.97,13.32,19.5,19.5,3.44,3.84,16.62,19.38,17.96,23.07,1.53,4.21-4.27,18.85-6.02,23.9-1.39,4.01-7.71,22.23-10.46,23.58-1.08.53-2.08.62-3.23.29-8.96-3.41-18.22-6.34-27.56-8.54-10.85-2.55-23.33-3.04-33.49-5.51-2.07-.5-2.84-1.35-3.94-3.06-5.47-8.44-11.21-27.24-15.59-37.41-4.49-10.39-10.05-20.29-14.16-30.85.1-4.58,34.28-26.22,39.73-30.3Z"/>
  <path class="cls-1" d="M711.83,311.02c1.46-.19,2.61-.4,3.78.77,7.01,8.23,14.69,16.14,21.43,24.59,2.52,3.16,8.91,8.86,5.47,12.41-18.32,17.29-31.79,38.36-46.46,58.6-10.8-.84-21.63-2.22-32.52-1.58-4.79.28-23.95,4.39-26.52,2.6-1.01-.7-5.78-21.51-5.61-23.93.33-4.82,11.18-35.13,14.2-38.6,17.17-11,34.32-23.13,53.49-30.51,2.99-1.15,10.05-3.99,12.76-4.35Z"/>
  <path class="cls-2" d="M1004.05,558.85c-3.14-5.48-15.75-13.85-17.73-18.76-2.46-6.1-3.02-21.71-4.56-29.44-3.82-19.23-10.5-37.62-18.68-55.35l17.58-47.51c3.06-.51,19.92,8.03,21.82,11.15,1.65,2.71,3.5,10.06,4.49,13.51,11.78,41.18,10.45,85.87-2.93,126.42Z"/>
  <path class="cls-2" d="M620.05,393.85c.04,5.46,5.15,17.79,3.82,22.27-.6,2.02-9.54,13.83-11.61,17.43-13.48,23.46-22.89,48.79-28.74,75.26l-18.45,17.04c-3.39-21.23-3.67-43.01-.88-64.37.91-7.01,4.29-27.31,7.1-32.9,1.13-2.26,8.79-8.49,11.3-10.7,11.09-9.78,23.53-18.74,37.46-24.03Z"/>
  <path class="cls-1" d="M929.07,664.85c1.31-5.11.21-11.73,1.05-16.44.4-2.26,3.05-4.68,2.9-7.11-.12-1.96-2.48-2.64-2.94-4.96-.28-1.4-.93-17.6-.55-18.44,1.37-3.08,11.58-10.41,14.57-13.51,12.71-13.23,23.48-28.2,33.39-43.61,2.46-3.82,1.47-7.39,6.32-5.16,2.34,1.08,13.73,14.71,14.09,16.95.49,3.09-8.22,19.5-10.31,23.31-14.37,26.26-34.56,51.04-58.51,68.98Z"/>
  <path class="cls-1" d="M628.06,645.85c-22.65-21.59-40.79-50.36-51.75-79.75-1.59-4.27-7.39-20.42-7.19-23.81.06-1.06,6.4-8.93,7.45-9.42,2.27-1.07,1.14,2.49,1.58,2.86.32.27,3.76.26,3.9.13.54-.52-3.33-11.57,5-11.99,6.12,21.18,17.69,40.32,30.19,58.31,2.23,3.2,10.95,12.99,11.57,15.43.75,2.95.44,13.81-.75,16.54-.63,1.47-5.15.34-5.11,5.22.03,3.7,5.1,6.16,5.1,6.99v19.5Z"/>
  <path class="cls-2" d="M994.05,398.85c-3.22-2.45-13.43-3.44-15.72-5.28-1.91-1.54-10.38-15.5-13.31-19.18-12.02-15.03-26.99-29.16-42.64-40.36-5.48-3.92-19.88-11.3-23.24-14.76-2.94-3.02-7.68-14.57-10.66-19.34-2.51-4.02-5.66-7.73-8.4-11.59,3.47.75,7.15,2.11,10.36,3.63,39.09,18.52,75.5,54.15,96.46,91.54,1.1,1.97,7.84,14.51,7.15,15.34Z"/>
  <path class="cls-2" d="M732.06,274.86c-2.89,4.18-7.22,7.18-10.51,10.98-2.5,2.89-6.57,10.15-9.11,11.89-3.53,2.41-13.83,4.46-18.63,6.37-11.87,4.75-24.34,10.96-35.06,17.94-3.02,1.97-13.58,11.21-15.4,11.69-1.59.43-10.03-5.28-7.63-7.96,2.28-2.54,11.09-8.79,14.44-11.33,24.35-18.42,52.36-31.8,81.9-39.59Z"/>
  <path class="cls-1" d="M767.56,712.85c-4.35-.29-11.32-1.38-15.68-2.32-1.16-.25-3.98-.13-3.81-1.67,9.7-.13,18.55-11.12,27.72-8.23l23.27,12.22c-10.33-.5-21.24.68-31.5,0Z"/>
  <path class="cls-2" d="M631.79,345.64c-.09.18-1.39.07-1.9,1.58-3.61,10.66-6.52,21.71-10.07,32.4-13.58,4.84-26.33,11.85-37.28,21.21,4.1-11.1,10.57-21.97,17.09-31.9,3.09-4.71,21.93-31.12,25.92-31.12,1.89,0,7.41,5.46,6.23,7.82Z"/>
</svg>