<svg xmlns="http://www.w3.org/2000/svg" viewBox="0 0 200 80" fill="none">
  <rect width="200" height="80" rx="8" fill="#1A1F71"/>
  <path d="M82.4 55.2L88.8 24.8H98.4L92 55.2H82.4Z" fill="#fff"/>
  <path d="M127.2 25.6C125.2 24.8 122 24 118 24C108.4 24 101.6 29.2 101.6 36.4C101.6 41.6 106.4 44.4 110 46C113.6 47.6 114.8 48.8 114.8 50.4C114.8 52.8 112 54 109.2 54C105.2 54 103.2 53.6 100 52L98.8 52.8L97.2 63.2C99.6 64.4 104 65.2 108.4 65.2C118.8 65.2 125.2 60 125.2 52.4C125.2 48.4 122.8 45.2 117.2 42.8C113.6 40.8 111.6 39.6 111.6 37.6C111.6 36 113.6 34 117.6 34C120.8 34 123.2 34.8 125.2 35.6L126 36L127.2 25.6Z" fill="#fff"/>
  <path d="M140.8 24.8H148.4C150.4 24.8 152 25.6 152.4 27.6L156.8 55.2L148 55.2L147.2 50.4H138L136.4 55.2H126.8L140.8 24.8ZM143.6 34L139.6 44.4H146.4L143.6 34Z" fill="#fff"/>
  <path d="M60 24.8L50.4 45.2L49.2 39.6L45.6 28C45.2 26 43.6 25.2 41.6 24.8H28L27.6 25.6C31.6 26.4 35.2 28 38 29.6L46.8 55.2H57.2L70.4 24.8H60Z" fill="#fff"/>
</svg>
