<svg xmlns="http://www.w3.org/2000/svg" viewBox="0 0 512 512">
  <path d="M512 256C512 114.6 397.4 0 256 0S0 114.6 0 256c0 120 82.7 220.8 194.2 248.5V334.2h-56.6v-78.2h56.6v-61.3c0-56 33.3-86.9 84.4-86.9 24.4 0 50 4.4 50 4.4v55h-28.2c-27.8 0-36.4 17.2-36.4 34.9v42h61.8l-9.9 78.2h-51.9V504.5C429.3 476.8 512 376 512 256z" fill="#1877F2"/>
  <path d="M355.9 256l9.9-78.2h-61.8v-42c0-17.6 8.6-34.9 36.4-34.9H368v-55s-25.6-4.4-50-4.4c-51.1 0-84.4 30.9-84.4 86.9v61.3h-56.6v78.2h56.6V504.5c11.3 1.8 22.9 2.7 34.7 2.7s23.4-.9 34.7-2.7V256h51.9z" fill="#fff"/>
</svg>
