<?xml version="1.0" encoding="UTF-8"?>
<svg id="Warstwa_1" data-name="Warstwa 1" xmlns="http://www.w3.org/2000/svg" viewBox="0 0 1536 1024">
  <defs>
    <style>
      .cls-1 {
        fill: #f97316;
      }
    </style>
  </defs>
  <path class="cls-1" d="M693.31,601.48l.61,2.9c-9.17,15.74-20.46,36.02-15.02,54.75,12.05,41.47,82.09,44.55,97.73,4.04l2.68-1.68,2.01-.64c3.86-8.79,10.47-6.73,8.99,2.64-16.02,49.62-89.08,56.4-115.8,12.3-17.55-28.96-2.85-54.58,11.8-80.3,5.11-4.38,10.82-.66,7,6Z"/>
  <path class="cls-1" d="M686.31,595.48c8.26-14.49,25.93-44.06,37.47-55.03,2.62-2.5,4.91-3.79,8.59-2.55,5.73,1.93,22.16,31.47,28.25,36.83,2.77,4.66,5.89,9.12,8.7,13.75l-.61,1.24c-3.57-.66-6.7-.08-9.39,1.76l-3.11-1.41c-2.96-5.09-23.13-37.38-25.99-37.79-3.87-.56-30.52,41.62-34.03,48.28l-2.87.91c.82-7.23-1.81-5.35-7-6Z"/>
  <path class="cls-1" d="M769.31,588.48c13.07,21.53,29.2,49.6,21,75l-2.01-6c-5.23-2-4.96,10.05-8.99,4-1.4-1.88-1.62-4.35-.68-7.39.44-21.57-10.07-41.36-20.08-59.87l.75-2.74c.86-5.78,5.76-3.75,10-3Z"/>
  <path class="cls-1" d="M830.83,349.46c-17.46-11.42-47.65-29.64-68.73-27.68-30.18,2.8-31.96,28.32-22.26,51.67,19.48,46.89,78.32,110.88,132.81,73.87,48.62-33.03-13.14-79.1-41.82-97.86ZM839.8,442.46c-30.27,1.77-60.64-32.41-74.91-56.06-6.56-10.88-26.04-44.19-3.85-48.7,12.36-2.51,29.48,6.5,40.3,12.25,18.32,9.74,64,40.9,71.16,59.84,7.19,19-16.85,31.74-32.7,32.67Z"/>
  <path class="cls-1" d="M759.31,591.48c-6.21-11.02-15.51-25.25-23.17-35.33-5.43-7.15-5.7-8.12-12.25-.59-9.74,11.2-22.73,32.74-30.58,45.92-13.17,22.1-27.44,48.82-8.98,72.48,23.86,30.57,83.23,25.87,94.98-12.48,6.32-20.63-9.76-51.83-20-70ZM706.28,671.95c-6.29,5.4-15.21-1.84-18.4-7.53-11.04-19.67,1.56-42.04,15.01-56.9,7.5,3.69-2.26,14.86-3.33,21.7-.91,5.85-.64,13.68,1.28,19.24,2.04,5.92,12,17.86,5.45,23.49ZM719.43,680.99c-4.7,1.08-8.75-5.98-4.46-7.4,5.74-1.9,11.76,5.72,4.46,7.4Z"/>
  <g>
    <path class="cls-1" d="M863.03,314.26c-36.58-25.74-77.27-44.61-120.16-57.39-.66-.2-1.1-.82-1.06-1.51.79-13.07.69-26.31.54-39.42-.03-2.88-.06-6.72-.1-10-.07-5.7.79-10.58.06-16.96-1.34-11.75-10.28-13.83-20.46-14.54-42.53-2.96-88.67,2.09-131.58.29-.15,0-.3,0-.44.05-6,1.53-10.99,4.7-12.42,11.09-.03.12-.04.24-.04.36l-.27,73.98c0,.37-.14.73-.39,1-4.28,4.65-7.77,10.01-10.42,15.77-21.46,46.68-38.75,99.72-56.81,147.94-.05.12-.07.25-.09.38l-1.13,11.58s0,.1,0,.15v350.93c.01.05.01.1.02.16,3.03,33.69,30.52,58.5,63.45,62.36.06,0,.13.01.19.01l309.84.05c.05,0,.11,0,.16,0,32.59-3.03,60.47-27.17,63.37-60.46,0-.05,0-.1,0-.15l.05-380.86c0-.05,0-.11,0-.16-2.88-32.36-56.79-76.65-82.31-94.6ZM706.81,189.48h18c.83,0,1.5.67,1.5,1.5v62c0,.83-.67,1.5-1.5,1.5h-18c-.83,0-1.5-.67-1.5-1.5v-62c0-.83.67-1.5,1.5-1.5ZM664.31,193.98c0-.63,0-1.81-.01-2.99,0-.83.67-1.51,1.5-1.51h25.01c.83,0,1.5.67,1.5,1.5v62c0,.83-.67,1.5-1.5,1.5h-23.5c-1.65,0-3-1.35-3-3v-57.5ZM625.31,190.98c0-3.05,19.53-.98,25.61-.57.79.05,1.39.71,1.39,1.5v61.07c0,.83-.67,1.5-1.5,1.5h-24c-.83,0-1.5-.67-1.5-1.5v-62ZM592.31,190.98c-.22-1.96,4.35-1.11,6.5-1.17,4.69-.14,8.26.53,13.04.65.81.02,1.46.69,1.46,1.5v61.02c0,.83-.67,1.5-1.5,1.5h-18c-.83,0-1.5-.67-1.5-1.5h0v-62ZM929.31,788.98c0,24.61-30.05,46.89-53.45,46.55l-298.92-.18c-22.51.33-52.63-22.97-52.63-46.37v-47.13c0-.8.63-1.46,1.43-1.5,4.92-.3,9.72.99,14.57,1.13.67.02,1.33-.02,2,0,118.98,2.87,238.78,3.68,357.51-.99,9.28-.37,18.58.14,27.83-.82.89-.09,1.66.59,1.66,1.48v47.83ZM929.31,725.1c0,.78-.6,1.44-1.38,1.5-9.68.79-19.41.52-29.11.89-105.58,4.08-211.39,3.27-316.97.95-13.69-.3-26.93-.14-40.54-.96-.33-.02-.67.02-1,0-4.97-.34-9.9.46-14.88-.71-.66-.15-1.12-.77-1.12-1.45v-221.35c0-.83.67-1.5,1.5-1.5,4.16-.01,8.35.05,12.5,0,7.48-.07,15.02-.11,22.51-.02,1.53.02,3.94-.52,5.15.61.28.26.64.41,1.02.41,20.61-.05,41.32.9,61.77,1.05,99.7.74,199.57-.04,299.02-2.02.84-.02,1.53.66,1.53,1.5v221.09ZM929.31,487.43c0,.73-.52,1.35-1.24,1.48-6.58,1.2-36.18.42-41.3.53-106.11,2.27-214.14,2.37-319.92,0-13.74-.31-27.59.87-41.22-.79-.75-.09-1.32-.74-1.32-1.5v-54.17c0-6.42,5.85-21.1,8.25-27.75,14.84-41.16,34.08-81,48.53-122.36.02-.05.04-.1.06-.15,1.23-2.58,6.26-10.71,8.74-12.46.25-.17.54-.25.84-.26l137.88-.51c.13,0,.26.02.38.05,52.78,13.4,104.91,39.17,146.79,73.97,13.13,10.91,53.52,48.61,53.52,65.48v78.45Z"/>
    <polyline class="cls-1" points="569.27 503.48 525.42 502.35 525.42 497.55 575.59 497.55"/>
  </g>
  <g>
    <path class="cls-1" d="M863.04,314.26c-36.58-25.74-77.27-44.61-120.16-57.39-.66-.2-1.1-.82-1.06-1.51.79-13.07.69-26.31.54-39.42-.03-2.88-.06-6.72-.1-10-.07-5.7.79-10.58.06-16.96-1.34-11.75-10.28-13.83-20.46-14.54-42.53-2.96-88.67,2.09-131.58.29-.15,0-.3,0-.44.05-6,1.53-10.99,4.7-12.42,11.09-.03.12-.04.24-.04.36l-.27,73.98c0,.37-.14.73-.39,1-4.28,4.65-7.77,10.01-10.42,15.77-21.46,46.68-38.75,99.72-56.81,147.94-.05.12-.07.25-.09.38l-1.13,11.58s0,.1,0,.15v350.93c.01.05.01.1.02.16,3.03,33.69,30.52,58.5,63.45,62.36.06,0,.13.01.19.01l309.84.05c.05,0,.11,0,.16,0,32.59-3.03,60.47-27.17,63.37-60.46,0-.05,0-.1,0-.15l.05-380.86c0-.05,0-.11,0-.16-2.88-32.36-56.79-76.65-82.31-94.6ZM706.82,189.48h18c.83,0,1.5.67,1.5,1.5v62c0,.83-.67,1.5-1.5,1.5h-18c-.83,0-1.5-.67-1.5-1.5v-62c0-.83.67-1.5,1.5-1.5ZM664.32,193.98c0-.63,0-1.81-.01-2.99,0-.83.67-1.51,1.5-1.51h25.01c.83,0,1.5.67,1.5,1.5v62c0,.83-.67,1.5-1.5,1.5h-23.5c-1.65,0-3-1.35-3-3v-57.5ZM625.32,190.98c-.58-.58,19.56-.57,25.61-.57.79,0,1.39.71,1.39,1.5v61.07c0,.83-.67,1.5-1.5,1.5h-24c-.83,0-1.5-.67-1.5-1.5v-62ZM592.32,190.98c-.22-1.96,4.35-1.11,6.5-1.17,4.69-.14,8.26.53,13.04.65.81.02,1.46.69,1.46,1.5v61.02c0,.83-.67,1.5-1.5,1.5h-18c-.83,0-1.5-.67-1.5-1.5h0v-62ZM929.32,788.98c0,24.61-30.05,46.89-53.45,46.55l-298.92-.18c-22.51.33-52.63-22.97-52.63-46.37v-47.13c0-.8.63-1.46,1.43-1.5,4.92-.3,9.72.99,14.57,1.13.67.02,1.33-.02,2,0,118.98,2.87,238.78,3.68,357.51-.99,9.28-.37,18.58.14,27.83-.82.89-.09,1.66.59,1.66,1.48v47.83ZM929.32,725.1c0,.78-.6,1.44-1.38,1.5-9.68.79-19.41.52-29.11.89-105.58,4.08-211.39,3.27-316.97.95-13.69-.3-26.93-.14-40.54-.96-.33-.02-.67.02-1,0-4.97-.34-9.9.46-14.88-.71-.66-.15-1.12-.77-1.12-1.45v-221.35c0-.83.67-1.5,1.5-1.5,4.16-.01,8.35.05,12.5,0,7.48-.07,15.02-.11,22.51-.02,1.53.02,3.94-.52,5.15.61.28.26.64.41,1.02.41,20.61-.05,41.32.9,61.77,1.05,99.7.74,199.57-.04,299.02-2.02.84-.02,1.53.66,1.53,1.5v221.09ZM929.32,487.43c0,.73-.52,1.35-1.24,1.48-6.58,1.2-36.18.42-41.3.53-106.11,2.27-214.14,2.37-319.92,0-13.74-.31-27.59.87-41.22-.79-.75-.09-1.32-.74-1.32-1.5v-54.17c0-6.42,5.85-21.1,8.25-27.75,14.84-41.16,34.08-81,48.53-122.36.02-.05.04-.1.06-.15,1.23-2.58,6.26-10.71,8.74-12.46.25-.17.54-.25.84-.26l137.88-.51c.13,0,.26.02.38.05,52.78,13.4,104.91,39.17,146.79,73.97,13.13,10.91,53.52,48.61,53.52,65.48v78.45Z"/>
    <polyline class="cls-1" points="569.28 503.48 525.43 502.35 525.43 497.55 575.6 497.55"/>
  </g>
</svg>