<?xml version="1.0" encoding="UTF-8"?>
<svg id="Warstwa_1" data-name="Warstwa 1" xmlns="http://www.w3.org/2000/svg" viewBox="0 0 1536 1024">
  <defs>
    <style>
      .cls-1 {
        fill: #f97316;
      }
    </style>
  </defs>
  <path class="cls-1" d="M904.65,475.83c-.87-.72,9.28-15.18,10.46-17.5,17.96-35.39,21.35-77.39,11.8-115.74,34.54-20,40.25-68.99,16.76-100.01-26.68-35.24-82.01-41.98-110.13-5.17-44.44-21.72-95.22-19.28-140.5-1.69-47.74-60.03-137.37-22.49-127.18,55.34,2.51,19.17,19.52,37.66,34.71,48.27-12.52,44.43-5.42,93.18,21.1,130.92-56.36,6.34-96.73,54.42-77.94,111.51,4.93,14.98,14.05,25.81,25.43,35.72,1.98,1.72,3.78,3.79,4.53,6.3.05.17.12.33.2.48,1.15,2.19,1.48,4.74,1.48,7.22.12,73.11,120.3,119.03,160.22,51.49,18.25,5.97,39.14,4.99,57.84.4,44.09,68.81,171.04,27.3,162.03-55.73.5-2.37,1.15-4.48,1.94-6.33,10.68-8.73,21.96-19.98,26.74-33.21,20.83-57.69-21.41-109.73-79.49-112.27ZM617.63,667.72c-26.81-27.21-23.33-76.36,18.02-82.8,28.97-4.51,58.04,12.1,73.66,35.88,42.73,65.1-44.95,94.35-91.68,46.92ZM815.38,673c-24.18-36.67,24.82-80.47,60.09-84.85,20.6-2.56,42.03,5.16,51.35,24.56,29.74,61.85-77.57,111.68-111.45,60.29ZM945.42,602.15c-8.18-15.86-28.18-31.24-45.58-35.19-2.89-3.28-4.19-7.86-3.9-13.74-3.67-16.92-14.16-37.47-7.54-5.07,2.03,7.78,1.05,13.52-2.94,17.21-14.6.33-35.12,6.47-47.99,13.56-29.31,16.14-51.23,45.9-49.75,80.53-15.15,4.66-30.67,3.64-46.15,1.83,5.19-45.84-36.82-88.64-79.53-97.11-5.36-1.06-11.98-1.08-17.98-2.01-2.72-.6-3.9-1.54-3.56-2.82l4.13-31.51c-9.04,8.03-11.49,19.58-11.53,31.28l-3.42,1.45c-.89,5.82-12.74,7.49-18.69,10.88-6.33,3.62-14.1,10.77-18.74,16.43-6.05,7.37-5.84,17.69-15.31,8.65-18.32-17.5-19.95-51.94-7.72-73.25,13.09-22.8,47.39-34.89,72.55-31.54,8.93,1.19,18.12,17.2,28.34,14.21,4.86-1.42,5.53-8.55,3.55-12.54-.62-1.24-17.06-13.46-20.81-17.54-41.54-45.27-49.41-115.28-16.76-167.88.6-1.5.1-2.85-1.14-4.09,21.02-24.11,23.42-29.51,7.21-16.2l-9.73,11.84-4.33.46c-4.75,6.28-10.66,13.19-12.81,20.78-31.06-13.51-37.29-57.43-12-79.96,19.64-17.5,51.34-17.51,67.93,4.07,6.89,8.96,5.61,20.12,20.87,16,3.8-1.03,8.58-4.88,12.77-6.42,33.96-12.46,64.53-15.62,99.79-5.53,8.05,2.3,32.15,14.97,36.77,14.34,6.72-.93,6.83-8.74,9.75-12.77,21.96-30.28,69.35-14.11,81.44,17.55,7,18.33,2.86,46.01-15.88,56.01-5.76,3.07-13.52,1.66-14.6,9.43-.87,6.27,5.49,20.31,6.88,28.5,6.79,39.83-4.08,83.1-31.49,113.1-7.08,7.75-30.05,19.73-21.74,29.65,7.85,9.38,19.21-8.5,25.88-9.27,3.96-.46,21.76.83,26.8,1.35,53.15,5.52,82.64,70.52,36.99,105.34Z"/>
  <path class="cls-1" d="M899.67,566.55c-2.03-.46-12.29-1.65-14.39-1.6,1.6-13.29-1.99-25.43-3.19-38.37,7.49-1.64,10.39,6.05,12.83,11.94,3.65,8.81,5.42,18.5,4.75,28.03Z"/>
  <path class="cls-1" d="M629.5,560.15c1.25-8.17-.19-12.34,3.41-21.37,1.39-3.48,9.21-18.57,14.17-13.8,2.76,2.65-5.36,30.86-3.19,36.77-4.77-.74-9.47-2.11-14.39-1.6Z"/>
  <path class="cls-1" d="M635.89,307.57c.68-4.06-5.38-5.2-7.99-7.99,4.77-6.31,8.8-12.52,15.23-17.55,5.62-4.4,13.9-10.74,12.8,1.53-6.4,6.93-15.16,16.15-20.04,24.01Z"/>
  <path class="cls-1" d="M697.87,333.44c24.82-2.79,26.8,35.98,2.7,36.56-22.61.54-24.6-34.09-2.7-36.56Z"/>
  <path class="cls-1" d="M820.87,335.09c30.4-7.02,31.49,37.27,4.66,34.75-19.4-1.83-22.75-30.57-4.66-34.75Z"/>
  <path class="cls-1" d="M794.29,490.74c-5.89,3.22-17.31,14.49-20.85,15.74-1.71.6-7.46-.85-10.48-.83-3.04.02-7.68,1.7-9.38,1.38-1.59-.31-11.88-10.16-14.84-12.15-11.05-7.43-20.58-12.35-34.53-9.5-21.35,4.37-20.42,34.81-18.73,51.57,3.15,31.4,32.7,35.78,55.13,18.4,3.07-2.38,10.56-11.96,12.97-12.41,1.81-.34,6.29,1.4,9.41,1.39,3.41-.01,7.64-1.87,10.31-.96,4.7,1.58,12.72,11.56,18.42,15.22,22.08,14.17,46.09,5.2,48.78-21.64,3.26-32.5-6.99-67.68-46.21-46.21ZM704.73,538.48c-.56-3.49-1.72-27.39-1-29.57,5.12-15.44,27.91,4.24,36.06,8.1l-21.71,3.03c-8.79,15.77,13.19,9.88,21.71,12.13-7.65,7.63-31.89,26.03-35.07,6.31ZM812.55,547.52c-9.4.58-18.01-11.34-26.38-14.56-.43-2.61,2.15-1.5,3.95-1.58,5.04-.22,15.18,1.78,17.63-3.18,6.24-12.67-10.16-9.24-17.62-9.6-1.8-.09-4.39,1.04-3.96-1.58,8.26-3.13,25.19-19.97,33.66-10.51,5.24,5.86,1.7,12.02,1.51,17.7-.29,8.34,3.04,22.59-8.79,23.31Z"/>
  <path class="cls-1" d="M818.18,402.65c-10.09-25.67-40.32-35.8-65.97-32.32-42.04,5.7-62.7,57.02-30.01,86.73,40.27,36.59,118.33,2.46,95.98-54.41ZM718.95,418.63c.81-17.48,16.43-32.71,33.22-35.55,23.34-3.94,54.38,7.08,56.43,33.92,4.28,56.1-92.16,56.1-89.65,1.63Z"/>
  <path class="cls-1" d="M752.17,397.47c12.29-2.2,41.74-1.41,33.15,18.78-1.8,4.23-14.87,11.86-19.57,12.5-18.39,2.53-38.76-26.77-13.58-31.28Z"/>
</svg>