<?xml version="1.0" encoding="UTF-8"?>
<svg id="Warstwa_1" data-name="Warstwa 1" xmlns="http://www.w3.org/2000/svg" viewBox="0 0 1536 1024">
  <defs>
    <style>
      .cls-1 {
        fill: #f97316;
      }
    </style>
  </defs>
  <path class="cls-1" d="M487.37,621.61c-2.09-9.42-.6-22.61.01-32.49,3.74-60.38,12.91-121.65,14.96-182.04.02-.68.19-1.29.41-1.88.31-.85-.2-1.75-1.08-1.98-21.89-5.63-34.76-28.58-36.34-50.07-2.14-29.05,3.52-60.35,4.24-89.54,0-.19.04-.38.12-.56,4.13-9.85,15.51-9.41,18.29.94.04.16.06.34.05.51l-4.72,77.52s0,.08,0,.12c.2,23.15,9.02,45.76,35.56,46.27,52.58,1.01,37.18-73.44,36.45-106.25-.11-5.16-.78-15.55.06-20.02,1.52-8.01,15.77-8.67,17.75,1.21,2.08,10.36,2.23,23.44,2.23,34.56,0,.11.04.22.03.33-.6,22.49,3.9,44.68-2.11,66.8-5.03,18.49-17.35,33.16-35.82,38.82-.68.21-1.13.85-1.08,1.56l12.85,160.5c.07.89.9,1.53,1.78,1.37,1.46-.27,3.23-.64,3.41-1.29,1.11-4.04-.43-16.47-.1-21.92,5.41-89.22,69.05-159.39,153.61-182.39,2.23-.61,12.3-2.29,16.01-3.68.82-.31,1.18-1.25.82-2.05-10.39-22.8,6.38-47.69,31.06-49.38,30.19-2.07,48.99,20.46,41.04,49.36-.24.88.31,1.76,1.21,1.91,99.42,16.12,178.48,104.59,172.4,207.18-.05.87.63,1.6,1.5,1.6h0c.78,0,1.44-.6,1.51-1.38l13.84-160.81c.06-.7-.38-1.35-1.05-1.56-14.3-4.61-26.44-15.02-33.43-28.23-22.37-42.32-3.08-124.36,55.07-121.07,66.74,3.78,76.17,128.49,14.52,149.28-.66.22-1.09.86-1.03,1.56,4.05,45.84,6.74,91.79,9.98,137.7,1.53,21.72,8.33,60.68,3.99,80.51-4.83,22.06-28.01,32.58-48.69,25.19-4.97-1.78-13.75-9.71-15.04-10.05-1.93-.51-4.48.87-6.74.91-7.02.12-14.06-.12-21.08-.11-.6,0-1.14.35-1.38.9-.91,2.1-2.5,7.25-3.21,8.57-1.28,2.37-8.59,11.03-10.96,13-9.54,7.9-19.2,5.96-30.4,6.6-78.36,4.53-157.49,3.18-235.97.95-16.83-.48-52.88,2.29-66.24-5.76-8.55-5.15-13.95-14.18-17.54-23.29-.23-.58-.79-.96-1.42-.96-6.63.09-13.26.03-19.89.09-1.64.02-3.72-1.02-4.84-.81-.64.12-6.88,6.19-9.31,7.57-21.99,12.44-49.78,1.11-55.31-23.81ZM1003.19,270.87c-50.97,3.01-57.37,116.09-1.21,117.64,61.39,1.69,53.8-120.74,1.21-117.64ZM776.21,355.44c.34-.21,2.82-6.3,3.1-7.39,8.31-31.51-46.05-32.67-38.26-.63.4,1.64,2.49,7.56,3.74,8.46,1.61,1.16,30.08.4,31.42-.44ZM950.93,567.61c.81,0,1.48-.64,1.52-1.44,6.69-141.81-144.32-233.16-271.43-175.41-68.62,31.17-112.11,99.4-108.71,175.41.04.81.71,1.45,1.52,1.45h377.11ZM993.09,630c-.83.76-.58,2.15.48,2.52,11.15,3.94,23.51-3.33,24.8-15.42,1.55-14.51-1.16-29.59-1.99-44.01-3.14-54.65-7.17-109.39-10.96-164.04-.12-1.71.1-3.31-1.56-4.44l-13.53,160.35c-.01.14-.01.28.01.42.75,4.15,8.15,5.88,11.56,9.19,8.85,8.59,10.44,23.67,6.91,34.99-2.74,8.78-9.27,14.51-15.73,20.44ZM532.18,566.55l-11.3-142.1c-.15-1.86-2.87-1.86-3.02,0-1.87,23.88-3.55,47.78-5.49,71.65-.7,8.63-2.32,17.37-2.98,26.02-2.13,27.61-6.43,61.94-6.04,88.94.14,9.92,6.95,21.5,17.52,22.55,1.83.18,10.7-.19,11.51-1.01,1.5-1.52-.6-1.76-1.26-2.28-17.63-13.79-29.97-39.4-9.68-57.15,1.87-1.63,7.64-4.03,9.91-5.14.56-.27.89-.86.84-1.48ZM538.1,584.84c-11.43,2.34-8.37,18.45-3.16,25.7,4.45,6.2,12.36,9.45,19.82,10.09.05,0,.11,0,.16,0l411.87-.05s.1,0,.14,0c13.44-.99,28.49-13.38,24.75-27.8-2.87-11.08-12.06-7.23-19.76-7.13-70.9.9-142.51-.02-213.09,0-68.19.02-137.5,1.02-206,0-5-.07-9.29-1.93-14.72-.82ZM921.46,637.61h-321.16c-1,0-1.75.96-1.46,1.92,2.56,8.37,10.72,10.42,19.04,11.07,25.67,2,54.08.55,80.03.97,57.18.92,113.81.84,170.92-1,12.85-.41,29.57.9,41.98-1.02,3.81-.59,10.24-5.53,12.07-9.88.41-.98-.35-2.06-1.41-2.06Z"/>
  <rect class="cls-1" x="509.55" y="256.72" width="17.11" height="83.71" rx="6.28" ry="6.28"/>
</svg>