<?xml version="1.0" encoding="UTF-8"?>
<svg id="Warstwa_1" data-name="Warstwa 1" xmlns="http://www.w3.org/2000/svg" viewBox="0 0 1536 1024">
  <defs>
    <style>
      .cls-1 {
        fill: #e85011;
      }
    </style>
  </defs>
  <path class="cls-1" d="M631.26,633.29c-.89,8.66-4.46,18.27-12.77,22.23-12.62,6.01-51.13,5.2-65.61,3.15-15.32-2.17-24.54-8.08-26.62-24.38-1.68-13.19-.61-27.65-1.03-40.97-24.63-27.46-26.15-71.83-20.69-106.73,3.17-20.24,12.08-41.34,26.71-55.78-15.09.29-30.51-3.5-37.19-18.32-8.74-19.36,1.38-37.54,20.75-43.63,17.59-5.53,40.64-8.2,51.43,9.94,12-33.77,21.83-84.17,56.33-102.18,25.09-13.1,69.89-11.04,98.23-11.77,37.85-.98,76.11-1.82,114-.08,22.04,1.01,50.47,1.67,70.34,11.66,36.65,18.44,43.49,67.86,57.63,102.37,8.1-18.15,33.56-15.41,49.45-10.45,42.68,13.31,27.4,66.02-13.95,62.46-.41,1.52.39,1.66.98,2.51,2.76,3.99,6.87,7.38,9.82,12.18,21.03,34.33,23.71,104.2,1.63,138.23-1.39,2.14-6.71,7.05-7.23,8.77-2.35,7.81.41,30.77-1.21,41.79-3.41,23.21-20.47,24.52-40.45,25.55-14.68.75-46.06,2.16-57.03-8.05-2.63-2.45-7.51-12.31-7.51-15.49v-17.5c-10.48.37-20.99.62-31.49,1.01-68.36,2.52-136.64,2.41-205.02,0-9.84-.35-19.68-.16-29.49-1.01-.34,4.68.47,9.9,0,14.5ZM958.26,407.78c-9.13-24.73-15.41-50.59-25.51-74.98-17.46-42.16-32.51-50.57-78-54-48.29-3.64-100.62-2.86-149-1.02-43.64,1.66-82.33-2.83-104.35,41.65-13.34,26.94-20.55,58.41-30.18,86.84-.1,1.67-.15,1.65,1.46,1.46,2.53-.29,15.16-2.69,16.06-3.96,6.56-22.34,13.05-46.14,22.65-67.35,15.91-35.13,31.36-38.72,68.37-41.63,51.02-4.01,104.95-3.73,156.03-1.05,37.56,1.98,61.39,1.68,79.32,38.68,10.77,22.21,17.93,47.63,24.63,71.37l18.51,3.98ZM927.26,402.79c1.99-2.03-15.03-48.18-17.52-53.98-10.67-24.88-18.3-37.95-47.11-41.89-15.27-2.08-34.28-2.74-49.82-3.18-45.08-1.27-99.55-2-144.04,3.06-31.18,3.55-38.38,14.93-49.98,42.02-7.31,17.08-12.92,35.44-17.55,53.45.13,2.26,22.27-1.34,24.52-1.48,96.21-5.64,192.97-2.83,289,1.98,4.15.21,8.35-.12,12.49,0ZM555.99,412.52c3.88-5.9.4-25.34-4.29-30.67-6.8-7.74-22.44-4.07-31.22-1.34-12.13,3.78-20.7,11.77-15.69,25.25,4.8,12.92,19.08,13.67,30.96,13.02,4.62-.25,17.62-2.29,20.24-6.26ZM972.55,412.51c6,7.41,30.97,7.53,39.41,4.49,15.45-5.56,18.42-25.15,3.23-33.64-9.89-5.53-33.9-10.77-40.79,1.08-3.02,5.2-5.66,23.37-1.86,28.07ZM713.06,411.08c-36.14.71-75.46,1.3-111.29,4.71-65.8,6.26-89.43,47.03-86.55,110.53,3.65,80.46,56.07,75.87,120.58,79.42,68.81,3.78,138,3.94,206.92,2,34.72-.98,111.95-.1,140.46-16.54,39.98-23.06,36.37-107.34,12.91-140.75-26.8-38.17-69.25-34.52-111.32-36.68-56.95-2.92-114.44-3.82-171.72-2.7ZM618.27,617.79c-21.33-1.64-44.06-2.31-64.53-8.98-5.33-1.74-10.15-4.42-15.48-6.01,1.12,12.84-4.62,39.37,12.73,42.76,10.67,2.09,48.41,2.67,58.3-.23,10.56-3.1,8.63-18.81,8.98-27.54ZM989.26,602.79c-24.36,11.8-52.27,13.69-79,15v15.5c0,4.6,4.91,11.27,9.72,12.28,12.01,2.5,44.37,2.29,56.52-.03,5.28-1.01,12.76-5.23,12.76-11.24v-31.5Z"/>
  <path class="cls-1" d="M740.06,501.08c15.21-.55,31.56-.84,46.75-.34,13.89.46,35.39,1.12,48.7,3.3,22.13,3.62,23.01,29.96-.99,34.49-13.9,2.62-31.47,1.73-45.79,2.21-27.92.95-68.58,2.95-95.72-2.19-23.45-4.45-22.85-31,1.89-34.64,13.08-1.92,31.61-2.34,45.17-2.83Z"/>
  <path class="cls-1" d="M593.93,456.17c48.37-1.68,51.9,70.01,4.82,73.6-50.14,3.82-53.84-71.89-4.82-73.6ZM593.03,468.04c-38.16,4.55-22.34,64.3,13.61,47.62,24.78-11.5,13.58-50.87-13.61-47.62Z"/>
  <path class="cls-1" d="M930.07,456.01c49.53-2.59,54.46,71.9,3.73,73.82-48.55,1.84-49.76-71.42-3.73-73.82ZM931.05,468.06c-27.34,2.53-31.38,40.23-6.34,48.78,8.38,2.86,14.79,1.98,22.25-2.85,21.49-13.93,8.94-48.23-15.91-45.93Z"/>
</svg>