<?xml version="1.0" encoding="UTF-8" standalone="no"?>
<svg
   xmlns:dc="http://purl.org/dc/elements/1.1/"
   xmlns:cc="http://creativecommons.org/ns#"
   xmlns:rdf="http://www.w3.org/1999/02/22-rdf-syntax-ns#"
   xmlns:svg="http://www.w3.org/2000/svg"
   xmlns="http://www.w3.org/2000/svg"
   viewBox="0 0 755.90533 755.90533"
   height="755.90533"
   width="755.90533"
   xml:space="preserve"
   id="svg2"
   version="1.1"><metadata
     id="metadata8"><rdf:RDF><cc:Work
         rdf:about=""><dc:format>image/svg+xml</dc:format><dc:type
           rdf:resource="http://purl.org/dc/dcmitype/StillImage" /></cc:Work></rdf:RDF></metadata><defs
     id="defs6"><clipPath
       id="clipPath18"
       clipPathUnits="userSpaceOnUse"><path
         id="path16"
         d="M 0,566.929 H 566.929 V 0 H 0 Z" /></clipPath><linearGradient
       id="linearGradient52"
       spreadMethod="pad"
       gradientTransform="matrix(478.03836,0,0,-478.03836,34.085796,283.46738)"
       gradientUnits="userSpaceOnUse"
       y2="0"
       x2="1"
       y1="0"
       x1="0"><stop
         id="stop48"
         offset="0"
         style="stop-opacity:1;stop-color:#ee7633" /><stop
         id="stop50"
         offset="1"
         style="stop-opacity:1;stop-color:#a13e1f" /></linearGradient><clipPath
       id="clipPath62"
       clipPathUnits="userSpaceOnUse"><path
         id="path60"
         d="M 0,566.929 H 566.929 V 0 H 0 Z" /></clipPath></defs><g
     transform="matrix(1.3333333,0,0,-1.3333333,0,755.90533)"
     id="g10"><g
       id="g12"><g
         clip-path="url(#clipPath18)"
         id="g14"><g
           transform="translate(327.5316,187.7217)"
           id="g20"><path
             id="path22"
             style="fill:#204c7f;fill-opacity:1;fill-rule:nonzero;stroke:none"
             d="m 0,0 v -1.34 c 0.12,0.42 0.24,0.84 0.35,1.27 0.01,0.02 0.01,0.05 0.02,0.07 z" /></g><g
           transform="translate(278.33,256.5292)"
           id="g24"><path
             id="path26"
             style="fill:#424242;fill-opacity:1;fill-rule:nonzero;stroke:none"
             d="m 0,0 c -3.6,14.48 -7.73,31.09 -11.88,47.71 -12.17,-9.17 -23.85,-18.43 -34.96,-27.62 2.42,-9.13 5.02,-18.96 7.67,-28.96 H 2.23 C 1.51,-5.99 0.77,-3.03 0,0 m -23.25,-68.88 c 3.04,-11.46 5.64,-21.29 7.47,-28.22 1.03,-7 8.88,-8.38 14.96,-8.21 8.37,-0.04 18.65,-0.04 27.79,0.02 11.08,-0.05 13.38,2.64 15.95,12.97 1.92,6.54 4.15,14.41 6.28,21.95 0.14,0.5 0.28,1 0.42,1.49 z m 266.21,58.1 -0.14,0.18 c -2.32,2.91 -5.07,5.63 -8.06,7.98 -4.04,3.28 -9.12,6.25 -12.03,8.36 -1.07,0.85 -2.43,1.82 -2.63,3.2 -0.04,2.27 1.6,3.41 3.61,5.23 2.09,1.74 4.37,3.35 6.51,5.07 23.54,17.69 25.52,55.82 5.44,76.83 -22.28,23.61 -56.19,21.48 -86.16,21.52 -17.13,0.07 -34.35,0.13 -51.53,0.08 C 80.31,108.52 63.16,98.6 46.62,88.19 40.53,61.77 33.48,31.22 27.48,5.24 26.37,0.46 25.28,-4.26 24.21,-8.87 h 42.16 c 7.94,28.41 15.86,56.57 23.74,84.49 1.67,6.73 4.52,5.89 11.29,5.86 4,0.01 7.83,0 12.58,0 18.87,-0.05 31.32,0.06 46.18,-0.03 9.87,-0.12 20.45,-0.13 29.04,-4.75 19.87,-9.84 17.79,-41.42 -3.67,-47.99 -10.36,-3.65 -21.52,-2.97 -32.19,-3.1 -9.29,0 -23.02,-0.02 -33.62,0 -5.1,0 -11.55,0 -16.02,-0.02 C 99.63,25.58 97.83,25.51 96.73,23.57 94.08,17.29 92.08,7.35 89.86,0.22 89.05,-2.74 88.13,-5.8 87.31,-8.87 h 52.31 c 1.3,0.04 2.62,0.02 3.89,0 0.68,-0.02 1.34,-0.03 1.98,-0.03 0.61,0 1.2,0.01 1.76,0.03 16.28,-0.53 34.16,2.35 48.58,-6.61 14.69,-9.33 17.05,-32.97 3.83,-44.54 l -0.18,-0.16 c -10.3,-8.8 -23.55,-8.69 -37.18,-8.69 -6.57,0.13 -13.39,-0.19 -20.04,-0.01 h -66 c -3.26,-0.73 -6.43,-1.84 -7.53,-7.02 -1.74,-6.05 -4.68,-16.71 -6.33,-22.65 -0.38,-1.7 -1.03,-3.46 -0.77,-5.07 0.45,-1.8 2.58,-1.59 4.18,-1.73 12.25,0 33.05,-0.08 46.21,-0.04 12.72,0.02 25.85,0.1 38.62,0.1 32.91,-0.43 72.94,-2.3 94.03,27.69 13.66,19.53 13.11,48.21 -1.71,66.82 m -366.44,-38.98 v -0.01 l 1.44,1.44 c -0.48,-0.47 -0.96,-0.95 -1.44,-1.43" /></g><g
           transform="translate(423.8215,247.6617)"
           id="g28"><path
             id="path30"
             style="fill:#ffffff;fill-opacity:1;fill-rule:nonzero;stroke:none"
             d="m 0,0 v -0.03 c -0.64,0 -1.3,0.01 -1.98,0.03 z" /></g><g
           transform="translate(328.136,187.719)"
           id="g32"><path
             id="path34"
             style="fill:#204c7f;fill-opacity:1;fill-rule:nonzero;stroke:none"
             d="M 0,0 -0.608,-2.188 V 0 Z" /></g></g></g><g
       id="g36"><g
         id="g38"><g
           id="g44"><g
             id="g46"><path
               id="path54"
               style="fill:url(#linearGradient52);stroke:none"
               d="m 511.292,415.951 c -9.661,-0.39 -22.6,-1.37 -38.35,-3.569 v 0 c -30.971,-4.351 -72.78,-13.471 -121.85,-32.271 v 0 c -27.73,-10.649 -57.76,-24.409 -89.47,-42.149 v 0 c -2.111,8.399 -4.101,16.36 -5.92,23.539 v 0 c -1.71,10.34 -6.601,12.831 -17.171,12.611 v 0 c -6.329,0.01 -13.539,0.01 -20.169,0 v 0 c -5.631,-0.121 -13.87,0.429 -16.86,-5.09 v 0 c -4.891,-16.47 -13.911,-50.98 -22.65,-84.581 v 0 c -11.471,-8.479 -23.081,-17.47 -34.781,-27.059 v 0 c -4.019,17.619 -8.11,35.59 -12.08,53.149 v 0 c -4.15,18.391 -7.91,34.731 -11.359,49.811 v 0 c -1.401,8.149 -4.26,13.98 -13.671,13.69 v 0 c -8.509,0.159 -17.679,0.11 -26.08,0.03 v 0 c -4.13,-0.241 -10.649,-0.03 -9.789,-5.23 v 0 c 6.369,-23.081 23.099,-88.15 37.64,-141.87 v 0 C 84.152,204.701 59.251,179.842 34.251,152.061 v 0 c -0.399,-0.429 -0.029,-1.08 0.62,-1.08 v 0 h 3.45 c 0,0.011 0,0.011 0.011,0.021 v 0 c 15.739,0.03 52.349,0.11 52.459,0.26 v 0 c 1.561,1.89 11.021,13.33 26.96,30.46 v 0 c 8.881,9.559 19.791,20.89 32.471,33.339 v 0 c 3.009,2.921 6.11,5.951 9.309,9.021 v 0 c 15.331,14.69 32.881,30.6 52.28,46.779 v 0 c 5.67,4.731 11.491,9.481 17.46,14.22 v 0 c 11.26,8.951 23.05,17.89 35.31,26.661 v 0 c 19.561,13.99 40.31,27.56 62.01,40.009 v 0 c 13.901,7.991 28.191,15.521 42.8,22.42 v 0 c 17.05,8.061 34.541,15.261 52.371,21.34 v 0 c 0.039,0.01 0.07,0.021 0.109,0.031 v 0 c 0.061,0.02 0.11,0.039 0.171,0.059 v 0 c 0.179,0.051 0.44,0.131 0.78,0.241 v 0 h 0.01 c 8.1,2.51 60.83,18.51 88.589,18.79 v 0 c 0.991,0.098 0.904,1.321 -0.07,1.321 v 0 c -0.019,0 -0.039,-10e-4 -0.059,-0.002" /></g></g></g></g><g
       id="g56"><g
         clip-path="url(#clipPath62)"
         id="g58"><g
           transform="translate(423.1815,395.9917)"
           id="g64"><path
             id="path66"
             style="fill:#ffffff;fill-opacity:1;fill-rule:nonzero;stroke:none"
             d="M 0,0 C -0.12,-0.05 -0.23,-0.1 -0.35,-0.15 H -0.36 C -0.7,-0.26 -0.96,-0.34 -1.14,-0.39 Z" /></g><g
           transform="translate(279.0704,203.9231)"
           id="g68"><path
             id="path70"
             style="fill:#e95524;fill-opacity:1;fill-rule:nonzero;stroke:none"
             d="m 0,0 c 1.419,-0.218 3.063,0.15 4.296,-0.581 1.71,-1.063 1.238,-3.698 -0.576,-4.916 -2.026,-1.24 -5.729,-1.234 -8.32,-0.997 -4.373,0.392 -7.642,2.887 -8.45,6.398 -1.078,3.955 -0.163,10.448 -0.686,15.058 -0.33,1.646 -1.673,1.971 -2.741,2.831 -2.665,2.15 1.972,4.363 3.252,6.107 1.508,1.674 1.962,3.696 3.784,4.709 3.44,1.92 5.028,-0.842 5.435,-3.461 0.902,-2.662 4.745,-1.587 7.082,-2.276 2.668,-0.681 2.774,-4.497 0.206,-5.359 -2.11,-0.86 -5.6,0.366 -7.145,-1.435 C -4.8,13.264 -4.08,9.112 -4.288,5.926 -4.376,2.616 -3.507,0.569 -0.231,0.033 Z" /></g><g
           transform="translate(311.5191,227.521)"
           id="g72"><path
             id="path74"
             style="fill:#e95524;fill-opacity:1;fill-rule:nonzero;stroke:none"
             d="m 0,0 c 3.034,0.031 3.188,-3.471 2.177,-5.576 -0.898,-1.96 -3.47,-1.733 -5.456,-2.274 -3.19,-0.71 -5.439,-3.248 -5.887,-5.807 -0.716,-4.402 0.119,-10.382 -0.461,-14.43 -0.374,-1.608 -2.533,-1.535 -4.101,-1.586 -1.319,0.009 -3.406,-0.078 -4.281,0.505 -0.482,0.356 -0.491,0.994 -0.51,1.569 -0.005,4.899 -0.019,20.741 0.007,25.399 -0.1,2.223 3.044,2.152 5.109,1.456 0.949,-0.364 1.688,-1.047 2.213,-1.653 0.676,-0.784 1.175,-1.381 2.024,-1.237 0.84,0.158 1.589,0.806 2.3,1.27 1.905,1.377 4.265,2.301 6.658,2.366 z" /></g><g
           transform="translate(340.0155,211.3261)"
           id="g76"><path
             id="path78"
             style="fill:#e95524;fill-opacity:1;fill-rule:nonzero;stroke:none"
             d="m 0,0 c -2.168,0.562 -5.603,0.024 -7.632,-0.539 -3.224,-0.816 -4.569,-5.958 -0.88,-7.139 3.547,-1.069 7.884,0.704 8.619,3.821 0.225,1.116 0.617,2.765 0.017,3.754 z M -4.057,16.48 C 6.007,16.421 9.913,11.066 9.366,3.076 9.354,-0.517 9.393,-7.511 9.345,-10.771 c 0.121,-1.573 -1.093,-2.761 -2.988,-2.559 -2.245,0.028 -3.979,2.195 -6.079,2.242 -1.034,-0.009 -2.287,-0.838 -3.744,-1.504 -4.824,-2.138 -12.273,-1.503 -15.039,2.978 -1.986,3.06 -1.646,7.982 1.01,10.559 2.107,2.136 5.29,2.921 8.441,3.368 2.633,0.535 8.808,-0.125 8.662,2.971 -1.17,4.286 -7.554,2.896 -11.24,2.29 -1.034,-0.056 -2.029,0.233 -2.791,0.83 -4.871,5.207 6.188,6.118 10.095,6.081 z" /></g><g
           transform="translate(372.3181,203.6364)"
           id="g80"><path
             id="path82"
             style="fill:#e95524;fill-opacity:1;fill-rule:nonzero;stroke:none"
             d="m 0,0 c 5.4,-0.141 6.717,4.728 6.56,8.497 0.063,4.169 -1.09,8.801 -6.269,8.901 -5.624,0.17 -7.057,-4.856 -6.912,-9.079 0.014,-3.847 1.331,-8.061 6.36,-8.314 z m -3.478,-6.175 c -7.894,0.286 -11.729,6.155 -12.062,13.001 -0.461,6.312 1.062,14.277 9.128,16.419 3.191,0.871 6.979,0.337 9.699,-1.218 1.171,-0.604 1.993,-1.001 2.408,-0.738 0.786,0.447 0.27,2.956 0.274,5.532 0.106,2.195 -0.525,6.13 0.991,7.296 1.545,1.056 3.977,0.739 5.791,0.712 1.417,-0.133 2.067,-0.237 2.166,-1.296 C 14.971,28.361 14.935,1.86 14.936,-4.201 14.925,-4.885 14.799,-5.426 13.935,-5.659 12.85,-5.99 10.833,-5.978 9.147,-5.172 7.874,-4.676 6.563,-3.517 5.276,-3.666 3.923,-3.739 2.098,-5.267 -0.043,-5.766 -1.072,-6.038 -2.15,-6.174 -3.228,-6.177 Z" /></g><g
           transform="translate(409.9537,221.9245)"
           id="g84"><path
             id="path86"
             style="fill:#e95524;fill-opacity:1;fill-rule:nonzero;stroke:none"
             d="m 0,0 c -2.698,-0.006 -5.144,-1.598 -5.812,-3.873 -0.207,-0.823 -0.668,-1.654 0.01,-2.149 2.328,-0.315 8.92,-0.047 11.309,-0.112 0.638,0.038 0.893,0.289 0.865,0.88 C 6.268,-2.533 3.64,0.143 0.258,0.002 Z m 0.194,5.672 c 6.92,0.235 13.277,-4.114 14.159,-10.104 0.241,-1.924 0.993,-4.644 -0.348,-6.238 -1.607,-1.329 -6.802,-0.536 -9.618,-0.742 -2.925,-0.263 -8.33,0.732 -9.9,-0.91 -0.747,-1.09 0.751,-3.779 3.034,-4.982 3.049,-1.627 7.511,-1.276 10.977,-0.441 1.03,0.203 2.267,0.542 3.189,0.058 1.124,-0.556 1.371,-2.304 0.496,-3.802 -2.058,-3.412 -8.571,-3.048 -12.693,-2.934 -8.382,0.318 -14.699,6.207 -14.796,13.347 -0.985,8.721 4.652,16.903 15.237,16.747 z" /></g><g
           transform="translate(207.86,256.4592)"
           id="g88"><path
             id="path90"
             style="fill:#424242;fill-opacity:1;fill-rule:nonzero;stroke:none"
             d="m 0,0 c -9.99,-36.3 -21.01,-76.83 -27.48,-98.61 -2.38,-6.11 -9.81,-6.79 -15.6,-6.72 -6.66,-0.08 -14.37,-0.1 -21.19,-0.13 -4.94,0 -14.16,-0.44 -17,2.33 -1.52,4.18 -3.48,10.3 -5.75,17.87 1.07,1.17 2.18,2.38 3.32,3.62 1.08,1.17 2.19,2.37 3.33,3.6 1.88,2.02 3.84,4.11 5.89,6.27 0.66,0.7 1.32,1.4 2,2.11 5.1,5.37 10.7,11.15 16.75,17.25 l 1.05,1.05 1.67,1.66 1.44,1.44 c 0.93,0.92 1.86,1.85 2.81,2.79 0.94,0.93 1.9,1.87 2.86,2.82 1.93,1.9 3.9,3.82 5.9,5.76 1,0.97 2.02,1.95 3.04,2.93 3.85,3.7 7.83,7.48 11.95,11.32 1.12,1.05 2.26,2.1 3.4,3.16 2.25,2.09 4.55,4.2 6.88,6.32 C -9.97,-8.83 -5.06,-4.43 0,0" /></g></g></g></g></svg>